<?xml version="1.0" encoding="UTF-8"?>
<svg id="SVGDoc" width="18" height="18" xmlns="http://www.w3.org/2000/svg" version="1.1" xmlns:xlink="http://www.w3.org/1999/xlink" xmlns:avocode="https://avocode.com/" viewBox="0 0 18 18"><defs></defs><desc>Generated with Avocode.</desc><g><g><title>Shape 1</title><path d="M10.96265,8.99948c0,1.08587 -0.88497,1.97149 -1.96987,1.97149c-1.08479,0 -1.96987,-0.88562 -1.96987,-1.97149c0,-0.42833 0.14282,-0.8286 0.37113,-1.15715c0.35694,-0.49983 0.94219,-0.82838 1.59874,-0.82838c0.65666,0 1.24191,0.32855 1.59874,0.82838c0.22842,0.32855 0.37113,0.72881 0.37113,1.15715zM13.56057,7.85681v4.58582c0,0.59985 -0.52814,1.12841 -1.12759,1.12841h-6.8803c-0.59956,0 -1.1277,-0.52857 -1.1277,-1.12841v-4.58582h1.72726c-0.14282,0.28578 -0.22842,0.72859 -0.22842,1.14267c0,1.70019 1.37032,3.0714 3.06896,3.0714c1.69865,0 3.06908,-1.38568 3.06908,-3.0714c0,-0.39982 -0.08572,-0.85689 -0.22842,-1.14267zM13.27515,4.67115v1.91425h-1.88427v-1.89977h1.65585zM17.99996,4.51411v8.97118c0,2.48558 -2.02698,4.51432 -4.51069,4.51432h-8.97869c-2.48371,0 -4.51069,-2.02874 -4.51069,-4.50007v-8.98543c0,-2.48581 2.02698,-4.51455 4.51069,-4.51455h8.96439c2.48371,0 4.51069,2.02874 4.52499,4.51455zM14.55987,5.55677c0,-1.19991 -0.92789,-2.12853 -2.12688,-2.12853h-6.8803c-1.19911,0 -2.12688,0.92861 -2.12688,2.12853v6.88586c0,1.19991 0.92777,2.12831 2.12688,2.12831h6.8803c1.199,0 2.12688,-0.92839 2.12688,-2.12831z" fill="#c7332c" fill-opacity="1"></path></g></g></svg>