<?xml version="1.0" encoding="UTF-8"?>
<svg id="SVGDoc" width="36" height="36" xmlns="http://www.w3.org/2000/svg" version="1.1" xmlns:xlink="http://www.w3.org/1999/xlink" xmlns:avocode="https://avocode.com/" viewBox="0 0 36 36"><defs></defs><desc>Generated with Avocode.</desc><g><g><title>Forma 1</title><path d="M35.99983,11.22885c0,0 0,13.54347 0,13.57322c0,2.44293 -1.32957,4.5457 -3.22323,5.45293c0.52597,0.52207 0.91942,1.30136 0.91942,2.42749c0,1.82915 -1.34903,3.31699 -3.00705,3.31699c-0.00183,0 -0.00366,0 -0.00538,0l-25.37807,-0.19163c-2.92316,0 -5.30571,-2.66068 -5.30571,-5.93038c0,-2.31117 0.68195,-3.99884 2.02686,-5.01686c0.19718,-0.14949 0.39894,-0.2761 0.60081,-0.38364c-0.43453,-0.29097 -0.83347,-0.65325 -1.18389,-1.07979c-0.8884,-1.08094 -1.38199,-2.48164 -1.39515,-3.94965c-0.00034,-0.0082 -0.00126,-13.51754 -0.00126,-13.51754c0,-3.26989 2.38243,-5.93038 5.31086,-5.93038l21.79115,0.14796c1.65333,0 3.00224,1.48784 3.00224,3.31718v1.91419h0.53753c2.92843,0 5.31086,2.62426 5.31086,5.84992zM24.66515,1.53854l4.08005,4.6193v-2.6931c0,-1.05291 -0.71812,-1.90961 -1.60069,-1.90961zM23.56274,2.62291v4.46275c0.83164,-0.41033 2.03728,-0.86643 3.28571,-0.86643c0.00103,0 0.00195,0 0.00309,0zM1.45332,5.92999v9.443c0.97115,-1.17704 2.36195,-1.9159 3.90472,-1.9159l21.79115,0.14835c0.58594,0 1.13308,0.18724 1.59599,0.51006v-5.8032c-0.51464,-0.46048 -1.13766,-0.68548 -1.89686,-0.68548c-1.78162,0 -3.56781,1.2371 -3.58566,1.24969c-0.12039,0.08409 -0.2615,0.12718 -0.40329,0.12718c-0.11101,0 -0.22247,-0.02631 -0.32455,-0.0797c-0.23254,-0.12108 -0.37846,-0.3619 -0.37846,-0.62408v-6.77831l-16.80302,-0.11421c-2.14828,0 -3.89992,2.02878 -3.89992,4.52263zM34.59358,24.80226c0,-0.03699 -0.0016,-0.07322 -0.0024,-0.10983c0,-0.00095 -0.00023,-0.00248 -0.00023,-0.00343c-0.05013,-2.35541 -1.6943,-4.28562 -3.70605,-4.40422c-0.065,-0.00362 -23.53397,-0.02288 -23.53397,-0.02288c-0.3883,0 -0.70312,-0.315 -0.70312,-0.70378c0,-0.3886 0.31483,-0.70378 0.70313,-0.70378c0,0 20.01766,0.02841 20.01915,0.02841c1.28757,0 1.36997,-1.73762 1.37478,-1.94107c-0.00721,-1.04547 -0.72224,-1.89379 -1.60046,-1.89379l-21.79104,-0.14777c-2.14336,0 -3.89145,2.01963 -3.89957,4.50547c0.00813,2.33806 1.57803,4.30202 3.58635,4.49002c0.1379,0.00019 24.57012,-0.00572 24.57012,-0.00572c0.3883,0 0.70313,0.31519 0.70313,0.70378c0,0.3886 -0.31483,0.70397 -0.70312,0.70397c0,0 -24.50237,0.01564 -24.62643,0.00591c-1.35017,0.01544 -3.57777,0.63838 -3.57777,4.57392c0,2.49365 1.75175,4.52282 3.90472,4.52282l25.38059,0.19182c0.88165,-0.00153 1.5984,-0.85766 1.5984,-1.90961c0,-0.78539 -0.26642,-1.32939 -0.81448,-1.66307c-0.41039,-0.25017 -0.82901,-0.28811 -0.83302,-0.28868c-0.03628,-0.00229 -23.29136,-0.01583 -23.29136,-0.01583c-0.3883,0 -0.70312,-0.31519 -0.70312,-0.70378c0,-0.38879 0.31483,-0.70378 0.70313,-0.70378c0,0 23.47973,0.00477 23.52116,0.01201c2.06829,-0.11116 3.7215,-2.09457 3.7215,-4.5171zM34.5937,11.22885c0,-2.44941 -1.75163,-4.44216 -3.90472,-4.44216h-0.53741c0,0 -0.00092,10.18358 -0.00103,10.18988c-0.01007,0.70073 -0.21263,1.35074 -0.55733,1.88273c0,0 4.15157,-0.38612 5.00038,1.92201h0.00011z" fill="#ea534c" fill-opacity="1"></path></g></g></svg>