<?xml version="1.0" encoding="UTF-8"?>
<svg id="SVGDoc" width="44" height="31" xmlns="http://www.w3.org/2000/svg" version="1.1" xmlns:xlink="http://www.w3.org/1999/xlink" xmlns:avocode="https://avocode.com/" viewBox="0 0 44 31"><defs></defs><desc>Generated with Avocode.</desc><g><g><title>Shape 7</title><path d="M41.02558,11.857l-0.04337,0.02205l2.76821,3.63872c0.16148,0.21272 0.24948,0.47489 0.24948,0.74351v9.28681c-0.00011,0.66979 -0.53204,1.21283 -1.18847,1.21283h-4.22504l-0.04189,0.16015c-0.62931,2.40027 -2.77039,4.07864 -5.20557,4.07864c-2.43496,0 -4.57592,-1.67859 -5.20535,-4.07864l-0.042,-0.15993h-8.63697l-0.042,0.15993c-0.62943,2.40005 -2.77039,4.07864 -5.20535,4.07864c-2.43507,0 -4.57603,-1.67859 -5.20546,-4.07864l-0.04189,-0.15993h-3.80527c-0.65643,0 -1.18835,-0.5426 -1.18835,-1.21283c0,-0.67001 0.53192,-1.21283 1.18835,-1.21283h3.78399l0.03994,-0.16372c0.59612,-2.44215 2.75745,-4.16996 5.22869,-4.16996c2.47124,0 4.63257,1.72781 5.22858,4.16996l0.04005,0.16372h8.59451l0.03994,-0.16372c0.59612,-2.44215 2.75734,-4.16996 5.22858,-4.16996c2.47124,0 4.63245,1.72759 5.22858,4.16974l0.03994,0.16372h3.01563v-7.65833l-2.14657,-2.82215h-10.99045c-0.65643,0 -1.18835,-0.5426 -1.18835,-1.21261v-10.21698h-22.14306c-0.65632,0 -1.18835,-0.5426 -1.18835,-1.21261c0,-0.67001 0.53192,-1.21306 1.18835,-1.21306h23.33141c0.65643,0 1.18835,0.54305 1.18835,1.21306v1.64451h6.18439c0.4493,0 0.86002,0.25838 1.06201,0.66778zM38.1538,11.42934l-3.02799,-6.1468h-5.45139v6.1468zM14.20727,28.57383c1.66088,0 3.01128,-1.37789 3.01128,-3.0734c0,-1.69463 -1.35075,-3.07296 -3.01128,-3.07296c-1.66088,0 -3.01128,1.37833 -3.01128,3.07296c0,1.69507 1.3504,3.0734 3.01128,3.0734zM33.33893,28.57383c1.66088,0 3.01128,-1.37789 3.01128,-3.0734c0,-1.69463 -1.3504,-3.07296 -3.01128,-3.07296c-1.66077,0 -3.01128,1.37833 -3.01128,3.07296c0,1.69507 1.35052,3.0734 3.01128,3.0734zM16.6087,7.07004c0,0.66979 -0.53181,1.21306 -1.18824,1.21306h-11.94569c-0.65643,0 -1.18835,-0.54327 -1.18835,-1.21306c0,-0.67001 0.53192,-1.21261 1.18835,-1.21261h11.94569c0.65643,0 1.18847,0.5426 1.18824,1.21261zM14.32228,12.68984c0,0.66979 -0.53181,1.21283 -1.18835,1.21283h-11.94569c-0.65643,0 -1.18824,-0.54305 -1.18824,-1.21283c0,-0.67001 0.53181,-1.21306 1.18824,-1.21306h11.94569c0.65655,0 1.18835,0.54305 1.18835,1.21306zM9.91425,17.09657c0.65632,0 1.18835,0.54282 1.18824,1.21283c0,0.66979 -0.53192,1.21283 -1.18835,1.21283h-6.43936c-0.65643,0 -1.18835,-0.54305 -1.18835,-1.21261c0,-0.67023 0.53192,-1.21306 1.18835,-1.21306z" fill="#c7332c" fill-opacity="1"></path></g></g></svg>