<?xml version="1.0" encoding="UTF-8"?>
<svg id="SVGDoc" width="42" height="35" xmlns="http://www.w3.org/2000/svg" version="1.1" xmlns:xlink="http://www.w3.org/1999/xlink" xmlns:avocode="https://avocode.com/" viewBox="0 0 42 35"><defs></defs><desc>Generated with Avocode.</desc><g><g><title>Forma 1</title><path d="M38.39433,23.59891c-0.15896,0.15426 -0.36312,0.2311 -0.56694,0.2311c-0.2116,0 -0.42286,-0.08275 -0.58285,-0.24692c-0.31734,-0.319 -0.32524,-0.83878 -0.01545,-1.16808c0.31345,-0.33273 0.83256,-0.34417 1.15986,-0.02593c0.00893,0.0082 0.02277,0.02269 0.03124,0.03146c0.31311,0.33273 0.30155,0.86052 -0.02586,1.17837zM4.7447,12.61048c-0.15884,0.15426 -0.36301,0.23091 -0.56694,0.23091c-0.21149,0 -0.42274,-0.08256 -0.58273,-0.24692c-0.31734,-0.319 -0.32524,-0.83897 -0.01545,-1.16808c0.31345,-0.33254 0.83256,-0.34398 1.15986,-0.02593c0.00881,0.00839 0.02277,0.0225 0.03101,0.03165c0.31322,0.33273 0.30167,0.86014 -0.02575,1.17837zM41.33913,29.56952c0.45742,1.43426 0.97584,3.05977 -0.04406,4.37809c-0.53993,0.69806 -1.23585,1.05215 -2.06783,1.05215c-0.82329,0 -1.66523,-0.35332 -2.47948,-0.69501c-0.32272,-0.13519 -0.65643,-0.27514 -0.98167,-0.3905c-1.04336,-0.36934 -2.31251,-0.54152 -3.99387,-0.54152c-1.49872,0 -3.13053,0.1371 -4.85813,0.28163c-1.91505,0.16036 -3.89534,0.32625 -5.91396,0.32625c-2.01862,0 -3.99891,-0.16589 -5.91408,-0.32625c-1.72771,-0.14453 -3.35953,-0.28163 -4.85813,-0.28163c-1.68159,0 -2.95063,0.17218 -3.99399,0.54152c-0.32524,0.11536 -0.65884,0.25531 -0.98156,0.3905c-0.81436,0.34169 -1.6563,0.69482 -2.47971,0.69501c-0.83199,0 -1.52779,-0.3537 -2.06783,-1.05215c-1.02001,-1.31833 -0.50148,-2.94364 -0.04417,-4.37771c0.07599,-0.23796 0.14774,-0.46296 0.21366,-0.68757c0.33691,-1.15015 0.10929,-2.53121 -0.20565,-4.44254c-0.29835,-1.80951 -0.66948,-4.06176 -0.66948,-6.94001c0,-2.87824 0.37113,-5.1305 0.66948,-6.94039c0.31494,-1.91152 0.54256,-3.29239 0.20565,-4.44235c-0.06592,-0.22481 -0.13767,-0.44961 -0.21355,-0.68757c-0.45742,-1.43388 -0.97584,-3.05919 0.04383,-4.3779c0.54005,-0.69806 1.23585,-1.05196 2.06795,-1.05196c0.82329,0 1.66534,0.35332 2.47959,0.69482c0.32272,0.13519 0.65632,0.27534 0.98156,0.39031c1.04347,0.36972 2.31262,0.54171 3.9941,0.54171c1.4986,0 3.13042,-0.13671 4.85802,-0.28144c1.91505,-0.16036 3.89545,-0.32644 5.91408,-0.32644c2.01851,0 3.99879,0.16608 5.91396,0.32644c1.72771,0.14472 3.35953,0.28144 4.85813,0.28144c1.68148,0 2.95052,-0.17199 3.99399,-0.54171c0.32513,-0.11498 0.65884,-0.25512 0.98156,-0.39031c0.81425,-0.3415 1.6563,-0.69482 2.47959,-0.69482c0.83199,0 1.52779,0.35389 2.06772,1.05196c1.02001,1.31871 0.50148,2.94403 0.04417,4.37809c-0.07599,0.23796 -0.14763,0.46296 -0.21355,0.68738c-0.33691,1.14996 -0.10941,2.53121 0.20565,4.44235c0.29823,1.80989 0.66948,4.06215 0.66948,6.94039c0,2.87824 -0.37125,5.13031 -0.66948,6.94001c-0.31506,1.91133 -0.54268,3.29239 -0.20565,4.44254c0.06592,0.22462 0.13767,0.44961 0.21366,0.68719zM39.71304,24.16464c0.28828,-1.74906 0.64693,-3.92543 0.64693,-6.66486c0,-2.73981 -0.35866,-4.91637 -0.64693,-6.66505c-0.33829,-2.05224 -0.60539,-3.67279 -0.15987,-5.19304c0.07141,-0.24406 0.14946,-0.48889 0.22511,-0.72552c0.42664,-1.33759 0.67291,-2.25798 0.22671,-2.83477c-0.28233,-0.36476 -0.54062,-0.41529 -0.77774,-0.41529c-0.49805,0 -1.15643,0.27648 -1.85349,0.56897c-0.34367,0.14415 -0.69901,0.29307 -1.06762,0.42349c-1.22246,0.43283 -2.66315,0.63457 -4.53415,0.63457c-1.56612,0 -3.23067,-0.13957 -4.99294,-0.28697c-1.88198,-0.15769 -3.82816,-0.32091 -5.77904,-0.32091c-1.95122,0 -3.89729,0.16322 -5.77927,0.32091c-1.76216,0.14739 -3.42659,0.28697 -4.99283,0.28697c-1.87099,0 -3.31181,-0.20173 -4.53415,-0.63457c-0.36873,-0.13042 -0.72407,-0.27972 -1.06762,-0.42349c-0.69706,-0.2925 -1.35555,-0.56897 -1.85349,-0.56897c-0.23724,0 -0.49564,0.05053 -0.77785,0.41529c-0.44609,0.57679 -0.19981,1.4968 0.22671,2.83439c0.07565,0.23701 0.15369,0.48184 0.22522,0.7259c0.4454,1.52025 0.1783,3.1408 -0.15987,5.19304c-0.28828,1.74868 -0.64705,3.92524 -0.64705,6.66505c0,2.73943 0.35877,4.9158 0.64693,6.66486c0.33817,2.05205 0.60528,3.67279 0.15987,5.19304c-0.07141,0.24387 -0.14957,0.48908 -0.22522,0.72609c-0.42664,1.33721 -0.6728,2.25721 -0.22671,2.83401c0.28233,0.36514 0.54073,0.41529 0.77785,0.41529c0.49793,-0.00019 1.15643,-0.27629 1.8536,-0.56878c0.34355,-0.14415 0.69889,-0.29288 1.0675,-0.42349c1.22246,-0.43302 2.66315,-0.63457 4.53415,-0.63457c1.56612,0 3.23067,0.13938 4.99294,0.28697c1.8821,0.15769 3.82828,0.32072 5.77915,0.32072c1.9511,0 3.89717,-0.16303 5.77915,-0.32072c1.76216,-0.14758 3.4267,-0.28697 4.99283,-0.28697c1.87099,0 3.31181,0.20154 4.53415,0.63457c0.36873,0.13061 0.72418,0.27934 1.06773,0.42349c0.69706,0.2925 1.35544,0.56878 1.85337,0.56878c0.23712,0 0.49553,-0.05015 0.77774,-0.41529c0.44621,-0.57679 0.19993,-1.4968 -0.22659,-2.83439c-0.07565,-0.23701 -0.15381,-0.48203 -0.22522,-0.72571c-0.44552,-1.52025 -0.17841,-3.14118 0.15999,-5.19304zM5.36863,9.7229c-0.05791,0.41605 -0.40913,0.71675 -0.81116,0.71675c-0.03834,0 -0.07702,-0.00267 -0.11616,-0.00839c-0.44849,-0.06464 -0.76069,-0.48641 -0.69717,-0.94175c0.17761,-1.2739 0.30235,-2.76975 -0.11799,-4.20458c-0.12943,-0.44084 0.11787,-0.90514 0.55218,-1.03651c0.43396,-0.13138 0.89104,0.11993 1.02024,0.56097c0.51052,1.74239 0.37251,3.4619 0.17006,4.91351zM26.19539,21.84317c0,2.92 -2.3307,5.29562 -5.1955,5.29562c-2.86491,0 -5.1955,-2.37562 -5.1955,-5.29562c0,-2.92019 2.33059,-5.29601 5.1955,-5.29601c2.8648,0 5.1955,2.37581 5.1955,5.29601zM24.55465,21.84317c0,-2.00114 -1.59462,-3.62931 -3.55476,-3.62931c-1.96014,0 -3.55488,1.62818 -3.55488,3.62931c0,2.00095 1.59473,3.62893 3.55488,3.62893c1.96014,0 3.55476,-1.62799 3.55476,-3.62893zM24.02044,11.11597c0,1.79521 -1.35498,3.25559 -3.02055,3.25559c-1.66557,0 -3.02055,-1.46038 -3.02055,-3.25559c0,-1.79521 1.35498,-3.25559 3.02055,-3.25559c1.66546,0 3.02055,1.46038 3.02055,3.25559zM22.3797,11.11597c0,-0.87615 -0.61901,-1.58909 -1.37981,-1.58909c-0.7608,0 -1.37993,0.71293 -1.37993,1.58909c0,0.87596 0.61913,1.5889 1.37993,1.5889c0.7608,0 1.37981,-0.71255 1.37981,-1.5889zM30.47891,14.1439c0,1.79483 -1.35498,3.25559 -3.02055,3.25559c-1.66569,0 -3.02067,-1.46076 -3.02067,-3.25559c0,-1.79521 1.35498,-3.25578 3.02067,-3.25578c1.66546,0 3.02055,1.46057 3.02055,3.25578zM28.83817,14.1439c0,-0.87634 -0.61901,-1.58909 -1.37981,-1.58909c-0.76092,0 -1.37993,0.71274 -1.37993,1.58909c0,0.87634 0.61901,1.5889 1.37993,1.5889c0.7608,0 1.37981,-0.71255 1.37981,-1.5889zM17.56208,14.1439c0,1.79483 -1.35498,3.25559 -3.02055,3.25559c-1.66557,0 -3.02055,-1.46076 -3.02055,-3.25559c0,-1.79521 1.35498,-3.25578 3.02055,-3.25578c1.66557,0 3.02055,1.46057 3.02055,3.25578zM15.92134,14.1439c0,-0.87634 -0.61901,-1.58909 -1.37993,-1.58909c-0.7608,0 -1.37993,0.71274 -1.37993,1.58909c0,0.87634 0.61913,1.5889 1.37993,1.5889c0.76092,0 1.38004,-0.71255 1.37993,-1.5889zM37.82133,30.75057c-0.07793,0.02364 -0.15678,0.03489 -0.23426,0.03489c-0.35351,0 -0.67989,-0.23396 -0.78587,-0.59567c-0.51064,-1.74258 -0.37239,-3.46171 -0.16994,-4.9137c0.06363,-0.45571 0.47951,-0.77262 0.92731,-0.70836c0.44861,0.06483 0.76069,0.4866 0.69717,0.94213c-0.17773,1.27371 -0.30258,2.76937 0.11776,4.20439c0.12943,0.44103 -0.11787,0.90494 -0.55218,1.03632z" fill="#ea534c" fill-opacity="1"></path></g></g></svg>