<?xml version="1.0" encoding="UTF-8"?>
<svg id="SVGDoc" width="33" height="31" xmlns="http://www.w3.org/2000/svg" version="1.1" xmlns:xlink="http://www.w3.org/1999/xlink" xmlns:avocode="https://avocode.com/" viewBox="0 0 33 31"><defs></defs><desc>Generated with Avocode.</desc><g><g><title>Forma 1</title><path d="M32.99987,3.91398v9.63428c0,2.16194 -1.74213,3.91448 -3.89122,3.91448h-1.70437v3.1253c0.00126,0.2076 -0.08217,0.40651 -0.23071,0.55062c-0.29984,0.2909 -0.77728,0.28221 -1.06625,-0.0196l-2.71488,-2.76112v4.80923c-0.00824,2.15838 -1.74557,3.90624 -3.89122,3.91448h-9.0493l-3.60466,3.70176c-0.13836,0.13654 -0.32364,0.21406 -0.51739,0.21717c-0.41634,0.00557 -0.75874,-0.32921 -0.76458,-0.74797v-3.17119h-1.67416c-2.14554,-0.00824 -3.88287,-1.75588 -3.89122,-3.91425v-9.58862c0.00835,-2.1586 1.74568,-3.90601 3.89122,-3.91448h5.686v-5.7501c0.00835,-2.1586 1.74568,-3.90601 3.89122,-3.91425c0.00515,0 15.63526,0 15.6403,0c2.14909,0 3.89122,1.75254 3.89122,3.91425zM21.86923,23.16717v-5.70444h-8.40088c-2.15149,-0.00846 -3.89122,-1.76546 -3.89122,-3.92985v-2.35149h-5.686c-0.01007,-0.00022 -0.02014,-0.00022 -0.03021,0c-1.30783,0.00846 -2.36115,1.08164 -2.35279,2.39716c0,0.01002 0,9.60889 0,9.61914c0.00835,1.31529 1.07529,2.3751 2.383,2.36664h2.42821c0.41645,0 0.75417,0.33968 0.75417,0.75866v2.07863l2.57904,-2.60943c0.13927,-0.14322 0.3289,-0.22497 0.52792,-0.22787h9.32076c1.31023,-0.00824 2.3679,-1.07919 2.3679,-2.39716zM21.88422,13.57855c0,-1.32376 -1.06682,-2.39716 -2.383,-2.39716h-8.41587v2.35149c0.01625,1.3173 1.07368,2.3809 2.383,2.39716h8.41587zM31.49165,13.53289l-0.01511,-9.61891c-0.01625,-1.31708 -1.07368,-2.38067 -2.383,-2.39738h-15.62519c-1.30932,0.01671 -2.36675,1.0803 -2.383,2.39738v5.7501h8.41587c2.1397,0.01671 3.86787,1.76212 3.87611,3.91448v2.6248l2.50362,2.5337v-2.04834c0,-0.41876 0.33772,-0.75866 0.75417,-0.75866h2.47353c1.30932,-0.01626 2.36675,-1.07986 2.383,-2.39716z" fill="#c7332c" fill-opacity="1"></path></g></g></svg>