<?xml version="1.0" encoding="UTF-8"?>
<svg id="SVGDoc" width="38" height="38" xmlns="http://www.w3.org/2000/svg" version="1.1" xmlns:xlink="http://www.w3.org/1999/xlink" xmlns:avocode="https://avocode.com/" viewBox="0 0 38 38"><defs></defs><desc>Generated with Avocode.</desc><g><g><title>Shape 1</title><path d="M37.99996,19.01259c-0.00011,2.43101 -0.46394,4.86136 -1.39126,7.1487c-0.92697,2.28668 -2.3188,4.43035 -4.16794,6.27911c-1.84902,1.84943 -3.9925,3.2409 -6.27949,4.16818c-2.28722,0.92728 -4.71783,1.39103 -7.14832,1.39103c-2.43393,0 -4.86889,-0.46175 -7.16091,-1.38791c-2.29179,-0.92594 -4.44031,-2.31808 -6.29311,-4.17085c-1.85314,-1.853 -3.24509,-4.00179 -4.17103,-6.29337c-0.92617,-2.29224 -1.38794,-4.72727 -1.38794,-7.16117c0,-2.43034 0.46371,-4.86113 1.39091,-7.14781c0.92697,-2.28734 2.3188,-4.43102 4.16805,-6.27978c1.84891,-1.84921 3.99239,-3.2409 6.27937,-4.16796c2.28722,-0.92728 4.71783,-1.39125 7.14832,-1.39125c2.43393,0 4.86889,0.46197 7.16091,1.38813c2.29179,0.92639 4.44042,2.31808 6.29322,4.17108c1.85303,1.85277 3.24497,4.00157 4.17091,6.29315c0.9264,2.29202 1.38817,4.72704 1.38828,7.16073zM35.46555,19.01282c0,-2.1136 -0.40123,-4.22632 -1.20335,-6.2114c-0.80246,-1.98486 -2.00432,-3.84142 -3.61336,-5.45051c-1.60915,-1.60887 -3.46573,-2.81101 -5.45071,-3.61333c-1.98463,-0.80232 -4.09767,-1.20348 -6.21117,-1.20348c-2.10823,0 -4.216,0.40272 -6.19606,1.20548c-1.98051,0.80321 -3.83331,2.00513 -5.43961,3.61133c-1.60618,1.60642 -2.80838,3.45919 -3.61141,5.4396c-0.8028,1.98018 -1.20541,4.08777 -1.20541,6.19603c-0.00011,2.11338 0.40112,4.22676 1.20335,6.21118c0.80235,1.9853 2.00432,3.84186 3.61324,5.45118c1.60915,1.60887 3.46584,2.81057 5.45071,3.61311c1.98475,0.8021 4.09767,1.20326 6.21117,1.20326c2.10835,0 4.216,-0.40227 6.19617,-1.20548c1.98029,-0.80299 3.8332,-2.00513 5.43949,-3.61088c1.60606,-1.60664 2.80827,-3.45964 3.61153,-5.43982c0.80292,-1.98018 1.20541,-4.08799 1.20541,-6.19625zM26.89084,12.86245l-14.02828,14.02833c-0.48431,0.48424 -1.26938,0.48424 -1.75358,0c-0.4842,-0.48424 -0.4842,-1.26941 0,-1.75343l14.02828,-14.02855c0.4842,-0.48424 1.26938,-0.48424 1.75358,0c0.4842,0.48424 0.4842,1.26941 0,1.75365zM18.58655,11.57233c0,0.47511 -0.09052,0.95044 -0.27248,1.39905c-0.18173,0.4486 -0.45616,0.87048 -0.81699,1.2311c-0.36072,0.36129 -0.78266,0.63548 -1.23127,0.81724c-0.44884,0.18198 -0.92422,0.27241 -1.39915,0.27241c-0.47493,0 -0.95032,-0.09043 -1.39915,-0.27241c-0.44872,-0.18176 -0.87055,-0.45595 -1.23127,-0.81724c-0.36083,-0.36062 -0.63538,-0.78249 -0.81699,-1.2311c-0.18196,-0.4486 -0.27248,-0.92394 -0.27248,-1.39905c0,-0.47489 0.09052,-0.95044 0.27248,-1.39927c0.18173,-0.4486 0.45616,-0.8707 0.81699,-1.2311c0.36072,-0.36107 0.78266,-0.63548 1.23127,-0.81724c0.44884,-0.18198 0.92422,-0.27264 1.39915,-0.27264c0.47493,0 0.95032,0.09066 1.39915,0.27264c0.44861,0.18176 0.87055,0.45618 1.23127,0.81724c0.36083,0.3604 0.63538,0.78249 0.81699,1.2311c0.18196,0.44883 0.27248,0.92438 0.27248,1.39927zM16.10661,11.57233c0,-0.15993 -0.03056,-0.31897 -0.09075,-0.46731c-0.06031,-0.14835 -0.149,-0.286 -0.27237,-0.40962c-0.1236,-0.1234 -0.26115,-0.21183 -0.40958,-0.27241c-0.1482,-0.06014 -0.30739,-0.09088 -0.46715,-0.09088c-0.15976,0 -0.31906,0.03074 -0.46726,0.09088c-0.14854,0.06059 -0.28599,0.14901 -0.40958,0.27241c-0.12337,0.12362 -0.21206,0.26128 -0.27248,0.40962c-0.06008,0.14835 -0.09064,0.30738 -0.09064,0.46731c0,0.15971 0.03056,0.31897 0.09075,0.46709c0.06042,0.14879 0.14912,0.286 0.27237,0.40962c0.1236,0.1234 0.26115,0.21183 0.40958,0.27241c0.1482,0.06036 0.30739,0.09088 0.46726,0.09088c0.15965,0 0.31895,-0.03052 0.46715,-0.09088c0.14843,-0.06059 0.28599,-0.14901 0.40958,-0.27241c0.12337,-0.12362 0.21206,-0.26128 0.27237,-0.40962c0.0602,-0.14812 0.09075,-0.30738 0.09075,-0.46709zM27.67945,25.61268c0,0.47511 -0.09052,0.95044 -0.27248,1.39927c-0.18173,0.44838 -0.45616,0.8707 -0.81711,1.23132c-0.3606,0.36084 -0.78255,0.63504 -1.23116,0.81702c-0.44884,0.18176 -0.92422,0.27241 -1.39915,0.27241c-0.47493,0 -0.95032,-0.09066 -1.39915,-0.27241c-0.44872,-0.18198 -0.87067,-0.45618 -1.23127,-0.81702c-0.36095,-0.36062 -0.63538,-0.78294 -0.81699,-1.23132c-0.18196,-0.44883 -0.27248,-0.92416 -0.27248,-1.39927c0,-0.47466 0.09052,-0.95 0.27248,-1.39905c0.18173,-0.44883 0.45605,-0.8707 0.81699,-1.23132c0.36072,-0.36062 0.78266,-0.63526 1.23127,-0.8168c0.44884,-0.18198 0.92422,-0.27264 1.39915,-0.27264c0.47493,0 0.95032,0.09066 1.39915,0.27264c0.44861,0.18154 0.87067,0.45618 1.23116,0.8168c0.36095,0.36062 0.63549,0.78249 0.81711,1.23132c0.18196,0.44905 0.27248,0.92438 0.27248,1.39905zM25.19963,25.61268c0,-0.15971 -0.03056,-0.31897 -0.09075,-0.46731c-0.06042,-0.14835 -0.14912,-0.28578 -0.27248,-0.4094c-0.12371,-0.12318 -0.26115,-0.21205 -0.40947,-0.27241c-0.1482,-0.06014 -0.30739,-0.09066 -0.46715,-0.09066c-0.15976,0 -0.31906,0.03029 -0.46726,0.09066c-0.14843,0.06036 -0.28599,0.14924 -0.40958,0.27241c-0.12337,0.12362 -0.21206,0.26105 -0.27248,0.4094c-0.06008,0.14835 -0.09064,0.30738 -0.09064,0.46731c-0.00011,0.15971 0.03044,0.31897 0.09064,0.46709c0.06042,0.14857 0.14912,0.28622 0.27248,0.4094c0.1236,0.12362 0.26115,0.21227 0.40958,0.27286c0.1482,0.05992 0.30739,0.09043 0.46715,0.09043c0.15976,0 0.31906,-0.03052 0.46726,-0.09043c0.14843,-0.06059 0.28587,-0.14924 0.40947,-0.27286c0.12337,-0.12318 0.21206,-0.26083 0.27248,-0.4094c0.06008,-0.14812 0.09075,-0.30738 0.09075,-0.46709z" fill="#c7332c" fill-opacity="1"></path></g></g></svg>