<?xml version="1.0" encoding="UTF-8"?>
<svg id="SVGDoc" width="34" height="25" xmlns="http://www.w3.org/2000/svg" version="1.1" xmlns:xlink="http://www.w3.org/1999/xlink" xmlns:avocode="https://avocode.com/" viewBox="0 0 34 25"><defs></defs><desc>Generated with Avocode.</desc><g><g><title>Shape 1</title><path d="M33.99996,6.78727v11.42447c0,3.74274 -3.03303,6.78763 -6.76117,6.78763h-20.47771c-3.72826,0 -6.76117,-3.04422 -6.76117,-6.78763v-11.42447c0,-3.7423 3.03291,-6.78763 6.76117,-6.78763h20.47771c3.72814,0 6.76117,3.04534 6.76117,6.78763zM32.61214,6.78727c0,-2.97629 -2.41047,-5.39883 -5.37334,-5.39883h-20.47771c-2.96288,0 -5.37346,2.42255 -5.37346,5.39883v11.42536c0,2.97629 2.41058,5.39883 5.37346,5.39883h20.47771c2.96288,0 5.37334,-2.42166 5.37334,-5.39883zM23.4912,12.84876c0,0.24658 -0.13115,0.47489 -0.34355,0.59918l-9.61361,5.63427c-0.10826,0.06304 -0.229,0.09511 -0.35042,0.09511c-0.11936,0 -0.23872,-0.03074 -0.34561,-0.09177c-0.21503,-0.12362 -0.34824,-0.35416 -0.34824,-0.60296v-11.27011c0,-0.24947 0.13321,-0.47912 0.34893,-0.60274c0.21584,-0.12384 0.48157,-0.12162 0.69534,0.00334l9.61361,5.63561c0.21309,0.12429 0.34355,0.35327 0.34355,0.60007zM21.42405,12.84787l-7.54658,-4.42434v8.84756z" fill="#c7332c" fill-opacity="1"></path></g></g></svg>