<?xml version="1.0" encoding="UTF-8"?>
<svg id="SVGDoc" width="33" height="39" xmlns="http://www.w3.org/2000/svg" version="1.1" xmlns:xlink="http://www.w3.org/1999/xlink" xmlns:avocode="https://avocode.com/" viewBox="0 0 33 39"><defs></defs><desc>Generated with Avocode.</desc><g><g><title>Shape 4</title><path d="M32.5905,33.42518c0.26791,0.53198 0.40947,1.12784 0.40947,1.72256c0,2.12412 -1.7395,3.85202 -3.87806,3.85202h-25.24395c-2.13856,0 -3.87806,-1.7279 -3.87806,-3.85202c0,-0.59529 0.14156,-1.19019 0.40878,-1.72313l0.68172,-1.35437c0.12028,-0.23834 0.19558,-0.49537 0.22179,-0.7606l0.00114,-0.01144l0.03021,-0.14377l0.00309,-0.00992c0.01945,-0.06197 0.03582,-0.1247 0.05253,-0.18743c0.04807,-0.18057 0.09167,-0.36209 0.13298,-0.54419c0.16239,-0.71599 0.28954,-1.43979 0.39814,-2.16607c0.18013,-1.20316 0.30624,-2.41433 0.39608,-3.62779c0.12611,-1.7033 0.17967,-3.41156 0.17967,-5.11925c0,-1.7115 -0.05367,-3.42319 -0.18047,-5.12993c-0.09007,-1.21422 -0.21652,-2.42672 -0.39722,-3.63122c-0.10872,-0.72495 -0.23586,-1.44799 -0.39825,-2.16302c-0.05527,-0.24292 -0.11295,-0.48622 -0.18391,-0.72533l-0.0024,-0.00801l-0.02975,-0.14186l-0.00103,-0.01087c-0.02689,-0.26561 -0.10151,-0.52264 -0.22202,-0.76137l-0.68161,-1.35418c-0.26791,-0.53198 -0.40947,-1.12746 -0.40947,-1.72256c0,-2.12412 1.7395,-3.85183 3.87806,-3.85183h25.24395c2.13856,0 3.87806,1.72771 3.87806,3.85183c0,0.59529 -0.14156,1.19039 -0.40878,1.72313l-0.68172,1.35418c-0.12028,0.23853 -0.19558,0.49537 -0.22179,0.76118l-0.00114,0.01087l-0.03021,0.14377l-0.00309,0.00992c-0.01945,0.06216 -0.03582,0.12489 -0.05253,0.18762c-0.04795,0.18038 -0.09155,0.3619 -0.13287,0.54381c-0.16251,0.71599 -0.28954,1.4396 -0.39814,2.16588c-0.18013,1.20354 -0.30624,2.41471 -0.39619,3.62817c-0.12611,1.7033 -0.17967,3.41194 -0.17967,5.11982c0,1.71093 0.05367,3.423 0.18047,5.12936c0.09007,1.21479 0.21664,2.42711 0.39722,3.6316c0.10872,0.72514 0.23586,1.44761 0.39825,2.16283c0.05527,0.2433 0.11295,0.48622 0.18391,0.72533l0.0024,0.00839l0.02975,0.14148l0.00114,0.01087c0.02678,0.2658 0.10139,0.52283 0.2219,0.76137zM2.58821,32.81425l-0.68161,1.35399c-0.15198,0.3026 -0.23289,0.64143 -0.23289,0.9795c0,1.20697 0.989,2.18952 2.20425,2.18952h25.24395c1.21525,0 2.20425,-0.98255 2.20425,-2.18952c0,-0.3375 -0.08057,-0.6769 -0.23277,-0.97874l-0.68172,-1.35418c-0.19855,-0.39432 -0.32707,-0.81819 -0.38074,-1.25617c-0.09956,-0.33921 -0.17979,-0.68414 -0.25486,-1.02965c-0.16754,-0.7709 -0.29915,-1.54962 -0.41016,-2.33043c-0.17281,-1.21498 -0.29377,-2.43683 -0.37914,-3.66096c-0.11707,-1.67642 -0.16674,-3.3576 -0.16674,-5.03783c0,-1.68061 0.04967,-3.3616 0.16674,-5.03821c0.08537,-1.22375 0.20634,-2.44579 0.37914,-3.66077c0.11101,-0.78082 0.24261,-1.55934 0.41016,-2.33024c0.07507,-0.34512 0.1553,-0.69024 0.25486,-1.02946c0.05367,-0.43741 0.18208,-0.86204 0.38086,-1.25617l0.6815,-1.35399c0.15209,-0.30241 0.23289,-0.64124 0.23289,-0.9795c0,-1.20697 -0.989,-2.18933 -2.20425,-2.18933h-25.24395c-1.21525,0 -2.20425,0.98236 -2.20425,2.18933c0,0.33788 0.08068,0.67728 0.23277,0.97931l0.68172,1.3536c0.19855,0.39451 0.32707,0.81838 0.38074,1.25617c0.09956,0.33921 0.17979,0.68433 0.25486,1.02984c0.16754,0.7709 0.29915,1.54924 0.41016,2.33005c0.17281,1.21536 0.29377,2.43702 0.37914,3.66116c0.11707,1.67661 0.16674,3.3576 0.16674,5.03821c0,1.68023 -0.04967,3.36141 -0.16674,5.03783c-0.08537,1.22414 -0.20634,2.44598 -0.37914,3.66096c-0.11101,0.78082 -0.24261,1.55915 -0.41016,2.33005c-0.07507,0.34531 -0.15518,0.69024 -0.25486,1.02946c-0.05356,0.43741 -0.18208,0.86204 -0.38074,1.25617zM19.63808,20.64288l1.91803,1.42854l-1.00433,1.33015l-1.87088,-1.39384c-0.60699,0.52245 -1.37489,0.81266 -2.1809,0.81266c-0.80601,0 -1.57391,-0.29021 -2.1809,-0.81266l-1.87099,1.39384l-1.00422,-1.33015l1.91792,-1.42854c-0.13584,-0.36572 -0.20485,-0.7526 -0.20485,-1.1431c0,-0.39069 0.06901,-0.77757 0.20485,-1.14348l-1.91792,-1.42854l1.00422,-1.32996l1.87088,1.39384c0.60711,-0.52245 1.37501,-0.81247 2.18102,-0.81247c0.80589,0 1.57379,0.29002 2.18079,0.81247l1.87099,-1.39384l1.00433,1.32996l-1.91803,1.42854c0.13584,0.36591 0.20485,0.75279 0.20485,1.14348c0,0.3905 -0.06901,0.77738 -0.20485,1.1431zM19.63808,10.06421l1.91803,1.42835l-1.00433,1.32996l-1.87088,-1.39365c-0.60699,0.52207 -1.37489,0.81209 -2.1809,0.81209c-0.80601,0 -1.57391,-0.29002 -2.1809,-0.81209l-1.87099,1.39365l-1.00422,-1.32996l1.91792,-1.42835c-0.13584,-0.3661 -0.20485,-0.75298 -0.20485,-1.14348c0,-0.3905 0.06901,-0.77738 0.20485,-1.14329l-1.91792,-1.42873l1.00422,-1.32977l1.87088,1.39365c0.60711,-0.52245 1.37501,-0.81228 2.18102,-0.81228c0.80589,0 1.57379,0.28983 2.18079,0.81228l1.87099,-1.39365l1.00433,1.32977l-1.91803,1.42873c0.13584,0.36591 0.20485,0.75279 0.20485,1.14329c0,0.3905 -0.06901,0.77738 -0.20485,1.14348zM19.63808,31.84429l1.91803,1.42835l-1.00433,1.33015l-1.87088,-1.39384c-0.60699,0.52245 -1.37489,0.81228 -2.1809,0.81228c-0.80601,0 -1.57391,-0.28983 -2.1809,-0.81228l-1.87099,1.39384l-1.00422,-1.33015l1.91792,-1.42835c-0.13584,-0.3661 -0.20485,-0.75298 -0.20485,-1.14348c0,-0.3905 0.06901,-0.77738 0.20485,-1.14348l-1.91792,-1.42816l1.00422,-1.33015l1.87088,1.39384c0.60711,-0.52245 1.37501,-0.81266 2.18102,-0.81266c0.80589,0 1.57379,0.29021 2.18079,0.81266l1.87099,-1.39384l1.00433,1.33015l-1.91803,1.42816c0.13584,0.3661 0.20485,0.75298 0.20485,1.14348c0,0.3905 -0.06901,0.77738 -0.20485,1.14348zM18.16911,19.49978c0,-0.9141 -0.74902,-1.65792 -1.66912,-1.65792c-0.92022,0 -1.66924,0.74382 -1.66924,1.65792c0,0.91372 0.74902,1.65773 1.66924,1.65773c0.9201,0 1.66912,-0.74401 1.66912,-1.65773zM18.16911,8.92074c0,-0.9141 -0.74902,-1.65811 -1.66912,-1.65811c-0.92022,0 -1.66924,0.74401 -1.66924,1.65811c0,0.9141 0.74902,1.65773 1.66924,1.65773c0.9201,0 1.66912,-0.74363 1.66912,-1.65773zM16.49999,32.35873c0.9201,0 1.66912,-0.74421 1.66912,-1.65792c0,-0.91391 -0.74902,-1.65792 -1.66912,-1.65792c-0.92022,0 -1.66924,0.74401 -1.66924,1.65792c0,0.91372 0.74902,1.65792 1.66924,1.65792z" fill="#ea534c" fill-opacity="1"></path></g></g></svg>