<?xml version="1.0" encoding="UTF-8"?>
<svg id="SVGDoc" width="43" height="34" xmlns="http://www.w3.org/2000/svg" version="1.1" xmlns:xlink="http://www.w3.org/1999/xlink" xmlns:avocode="https://avocode.com/" viewBox="0 0 43 34"><defs></defs><desc>Generated with Avocode.</desc><g><g><title>Shape 6</title><path d="M38.88274,-0.0004c0.32982,0.00839 0.62084,0.23072 0.71045,0.56993l0.00034,0.00095c1.23299,4.55008 2.22977,9.20504 2.82795,13.89813c0.22774,1.78739 0.39757,3.58412 0.49278,5.38505c0.0769,1.45619 0.1054,2.91714 0.07095,4.37543c-0.02689,1.13185 -0.09144,2.26503 -0.20668,3.39078c-0.08331,0.81418 -0.19295,1.62741 -0.34012,2.4313c-0.0919,0.50224 -0.19844,1.00448 -0.32948,1.49699c-0.05184,0.19487 -0.10769,0.3966 -0.17464,0.58652c-0.103,0.28754 -0.34435,0.4847 -0.63526,0.50872l-15.87307,1.35399h-0.06557c-0.19341,0 -0.37811,-0.08885 -0.51773,-0.22805l-3.34373,-3.50576l-3.34682,3.50919l-0.0016,0.00172c-0.14729,0.16341 -0.36209,0.23853 -0.57312,0.22347l-15.87788,-1.35456h-0.00069c-0.2877,-0.02345 -0.53146,-0.22748 -0.63549,-0.50948c-0.06683,-0.18972 -0.12268,-0.39107 -0.17441,-0.58575c-0.13103,-0.49251 -0.23746,-0.99475 -0.32936,-1.49699c-0.14717,-0.80389 -0.25658,-1.61712 -0.33978,-2.4313c-0.11501,-1.12575 -0.17944,-2.25893 -0.20599,-3.39078c-0.03422,-1.45828 -0.00538,-2.91924 0.0721,-4.37543c0.09567,-1.80074 0.26596,-3.59766 0.49427,-5.38486c0.59978,-4.69328 1.5984,-9.34824 2.83321,-13.89794l0.00034,-0.00133c0.08892,-0.33654 0.37731,-0.56993 0.7085,-0.56993zM4.67509,1.5618l-0.03353,0.12604c-0.25349,0.95166 -0.49187,1.90752 -0.71423,2.86776l-0.04955,0.21394h35.24242l-0.04955,-0.21413c-0.22247,-0.96005 -0.46085,-1.9159 -0.71423,-2.86757l-0.03365,-0.12604zM15.22757,21.57774c0,4.15958 2.30278,6.75562 6.27148,6.75562c3.97991,0 6.27148,-2.60863 6.27148,-6.7745c0,-0.48165 0.39528,-0.83439 0.84412,-0.773h0.00183c0.38212,0.04767 0.63137,0.41834 0.63137,0.81094c-0.00469,2.27037 -0.63194,4.51023 -2.20104,6.12582c-1.00479,1.03479 -2.26444,1.67127 -3.63178,1.96605l-0.29949,0.06483l2.52594,2.64943l15.04131,-1.27543l0.0293,-0.11879c0.21629,-0.8792 0.36312,-1.79654 0.47459,-2.69634c0.20279,-1.63714 0.28805,-3.30021 0.29858,-4.9505c0.01556,-2.42425 -0.13275,-4.85574 -0.39219,-7.26358c-0.34904,-3.23862 -0.90294,-6.4576 -1.59805,-9.63272l-0.0293,-0.13366h-35.9428l-0.0293,0.13404c-0.69317,3.17322 -1.24557,6.39029 -1.59393,9.627c-0.25898,2.40747 -0.40718,4.838 -0.39162,7.26149c0.01053,1.65106 0.09579,3.3147 0.29915,4.95279c0.11192,0.90075 0.25944,1.82228 0.47871,2.70187l0.02953,0.11841l15.0412,1.28515l2.52594,-2.64962l-0.29949,-0.06464c-1.35063,-0.29116 -2.59586,-0.91848 -3.59413,-1.93364c-1.60183,-1.62894 -2.23869,-3.90369 -2.23869,-6.20591c0,-0.21184 0.07725,-0.413 0.22018,-0.56154c0.15209,-0.15807 0.35751,-0.2351 0.56992,-0.22004c0.39368,0.03184 0.68722,0.38688 0.68722,0.80045z" fill="#ea534c" fill-opacity="1"></path></g></g></svg>