<?xml version="1.0" encoding="UTF-8"?>
<svg id="SVGDoc" width="37" height="36" xmlns="http://www.w3.org/2000/svg" version="1.1" xmlns:xlink="http://www.w3.org/1999/xlink" xmlns:avocode="https://avocode.com/" viewBox="0 0 37 36"><defs></defs><desc>Generated with Avocode.</desc><g><g><title>Shape 5</title><path d="M2.92152,7.44795c-1.12049,0 -2.10377,-0.79512 -2.34158,-1.89302l-0.52505,-2.42863c-0.13607,-0.62522 -0.0174,-1.2699 0.32799,-1.80741c0.34538,-0.53904 0.87982,-0.91238 1.50444,-1.04795l0.99747,-0.2168c0.16617,-0.03623 0.33623,-0.05453 0.50629,-0.05453c1.11992,0 2.10434,0.79454 2.34261,1.89188l0.52528,2.4292c0.13424,0.62294 0.01534,1.27371 -0.3289,1.80894c-0.3447,0.53618 -0.88291,0.91105 -1.50478,1.04624l-0.99758,0.21699c-0.16605,0.03642 -0.33623,0.05511 -0.50617,0.05511zM21.76971,20.5176v4.34606h2.1991c0.47688,0 0.86346,0.38764 0.86346,0.86586v2.20478h1.05c1.32053,0 2.39536,1.07712 2.39536,2.40117v3.26303c0,1.32386 -1.07483,2.40098 -2.39536,2.40098h-12.25021c-1.32065,0 -2.39479,-1.07712 -2.39479,-2.40098v-3.26303c0,-1.32405 1.07414,-2.40117 2.39479,-2.40117h1.05057v-2.20478c0,-0.47821 0.38658,-0.86586 0.86357,-0.86586h2.19898v-4.34606h-4.16576c-1.06865,0 -2.46872,-0.58156 -3.22495,-1.33816l-7.13951,-7.14937c-0.45227,-0.45266 -0.69992,-1.05729 -0.69992,-1.69796c0,-0.64029 0.24742,-1.24473 0.69912,-1.69777l0.72212,-0.7238c0.90523,-0.90704 2.48131,-0.90819 3.38619,0l5.93548,5.95078c0.4343,0.43512 1.38966,0.83211 2.00352,0.83211h0.08034v-1.54733c-0.8186,-0.08428 -1.58546,-0.55582 -1.94069,-1.32062c-0.12405,-0.26733 -0.18871,-0.55601 -0.18871,-0.85098c0,-0.29478 0.06466,-0.58366 0.18883,-0.85079c0.39333,-0.84717 1.29158,-1.33435 2.20596,-1.33435l6.00243,-0.00038c0.91507,0 1.81423,0.48851 2.20734,1.33644c0.1236,0.26675 0.18803,0.55487 0.18803,0.84908c0,0.29421 -0.06443,0.58213 -0.18803,0.84927c-0.35488,0.76556 -1.12255,1.23805 -1.94195,1.32233v1.54523l1.78574,-0.00019c1.06831,0 2.46838,0.58042 3.22483,1.33682l9.41254,9.41898c0.45296,0.45266 0.70118,1.0571 0.70187,1.69834c0,0.64086 -0.24719,1.24473 -0.69923,1.69796l-0.72189,0.7238c-0.45158,0.45362 -1.05434,0.70168 -1.69327,0.70168c-0.63927,0 -1.24168,-0.24845 -1.69373,-0.70168l-8.19523,-8.21734c-0.43419,-0.43474 -1.39,-0.83211 -2.00352,-0.83211zM2.25296,1.96318c-0.17452,0.03794 -0.32124,0.14243 -0.41782,0.29288c-0.09647,0.14987 -0.13023,0.32796 -0.09235,0.50281l0.52517,2.42997c0.07565,0.35065 0.4438,0.58823 0.79353,0.51234l0.99747,-0.21718c0.35923,-0.07856 0.58914,-0.43665 0.51132,-0.79683l-0.52517,-2.42844c-0.06592,-0.30546 -0.34298,-0.52741 -0.65403,-0.52741c-0.04715,0 -0.09453,0.00515 -0.14053,0.01506zM14.93931,10.97449c0,0.01983 0.00229,0.03947 0.00652,0.05892c0.05905,0.2658 0.42091,0.3947 0.66135,0.3947h6.00243c0.24044,0 0.6031,-0.12909 0.66193,-0.39489c0.00423,-0.01926 0.00652,-0.0389 0.00652,-0.05873c0,-0.01983 -0.00229,-0.03928 -0.00652,-0.05854c-0.05882,-0.2658 -0.42149,-0.39527 -0.66193,-0.39527h-6.00243c-0.24044,0 -0.6023,0.12909 -0.66124,0.39508c-0.00435,0.01907 -0.00664,0.0389 -0.00664,0.05873zM17.06882,13.16001v1.53303l3.07915,-0.00076v-1.53227zM26.55003,30.33508c0,-0.36934 -0.30018,-0.66946 -0.66833,-0.66946h-12.25021c-0.36827,0 -0.66776,0.30012 -0.66776,0.66946v3.26284c0,0.36896 0.29984,0.66946 0.66776,0.66946h12.25021c0.36816,0 0.66833,-0.30031 0.66833,-0.66946zM23.10467,27.93391v-1.3393h-6.69559v1.3393zM20.04211,24.86309v-4.34587h-0.57049v4.34587zM31.62193,26.54408l1.59874,-1.73267l-7.5539,-7.55856c-0.43476,-0.43455 -1.39126,-0.83134 -2.00535,-0.83134l-1.78585,0.00057v1.08456c0,0.47821 -0.38658,0.86586 -0.86346,0.86586c-0.47699,0 -0.86346,-0.38764 -0.86346,-0.86586v-1.08399l-3.07926,0.00114v1.08342c0,0.47821 -0.38658,0.86586 -0.86346,0.86586c-0.47699,0 -0.86357,-0.38764 -0.86357,-0.86586v-1.08284h-0.08034c-1.06853,0 -2.46895,-0.58156 -3.22449,-1.33911l-5.93548,-5.95097c-0.12634,-0.1268 -0.29366,-0.19449 -0.47218,-0.19449c-0.17864,0 -0.34618,0.06807 -0.47287,0.19449l-0.72166,0.7238c-0.126,0.1268 -0.19341,0.2944 -0.19341,0.47345c0,0.17866 0.06706,0.34627 0.19363,0.47268l7.13974,7.14937c0.43407,0.43474 1.39057,0.83211 2.00409,0.83211h8.4137c1.06819,0 2.46838,0.58175 3.22437,1.33835zM35.27237,27.14604c0,-0.17885 -0.06706,-0.34627 -0.19363,-0.4723l-0.63583,-0.63628l-1.59966,1.73362l0.56946,0.57107c0.24696,0.24673 0.69752,0.24769 0.94448,0l0.72178,-0.7238c0.12566,-0.12642 0.19341,-0.29383 0.19341,-0.4723z" fill="#ea534c" fill-opacity="1"></path></g></g></svg>