<?xml version="1.0" encoding="UTF-8"?>
<svg id="SVGDoc" width="29" height="29" xmlns="http://www.w3.org/2000/svg" version="1.1" xmlns:xlink="http://www.w3.org/1999/xlink" xmlns:avocode="https://avocode.com/" viewBox="0 0 29 29"><defs></defs><desc>Generated with Avocode.</desc><g><g><title>Shape 1</title><path d="M25.80627,23.14217c0,0.68983 -0.26173,1.33801 -0.73689,1.8256c-0.47516,0.48714 -1.10744,0.75532 -1.78024,0.75532c-0.6728,0 -1.30508,-0.26818 -1.78024,-0.75532c-0.98156,-1.00657 -0.98156,-2.64418 0,-3.65097c0.47516,-0.48736 1.10733,-0.75554 1.78024,-0.75554c0.6728,0 1.30508,0.26818 1.78024,0.75554c0.47516,0.48714 0.73689,1.13576 0.73689,1.82538zM24.23775,22.16968c-0.2615,-0.26818 -0.60505,-0.40227 -0.9486,-0.40227c-0.34355,0 -0.68699,0.13409 -0.94849,0.40227c-0.52299,0.53636 -0.52299,1.40885 0,1.94499c0.52299,0.53659 1.37398,0.53636 1.89697,0c0.52299,-0.53614 0.52299,-1.40862 0.00011,-1.94499zM27.34413,27.29031c-1.07517,1.1028 -2.50385,1.70955 -4.02363,1.70955c-1.51978,0 -2.94846,-0.60675 -4.02283,-1.70844c-1.53111,-1.57011 -2.04952,-3.87015 -1.37215,-5.95814l-3.42648,-3.5131l-3.42636,3.5131c0.67749,2.08821 0.15896,4.38803 -1.37226,5.95814c-1.07426,1.10168 -2.50294,1.70844 -4.02271,1.70844c-1.51989,0 -2.94846,-0.60675 -4.02283,-1.70844c-2.20779,-2.27287 -2.20779,-5.96928 -0.0008,-8.24125c1.53992,-1.571 3.78239,-2.10224 5.81142,-1.40796l3.42625,-3.51354l-6.5633,-6.73774c-1.04874,-1.07139 -1.4407,-2.58114 -1.13239,-4.36464c0.2227,-1.28879 0.73471,-2.27242 0.75634,-2.3134l0.37491,-0.71322l10.17174,10.43014l10.17174,-10.43014l0.37491,0.713c0.08789,0.16706 2.12402,4.12408 -0.37708,6.67916l-6.56227,6.73663l3.42636,3.51354c2.02915,-0.69429 4.27139,-0.16305 5.80959,1.4064l0.00183,0.00178c2.20688,2.27197 2.20688,5.96839 0,8.24014zM26.51192,19.90238c-1.29616,-1.32153 -3.22094,-1.71512 -4.90379,-1.00301l-0.36278,0.15325l-4.80194,-4.92372l7.39414,-7.59018c1.32797,-1.35717 0.88142,-3.38881 0.49404,-4.48581l-9.83253,10.08244l-9.83082,-10.08066c-0.38544,1.09901 -0.82958,3.13354 0.49141,4.48269l7.39506,7.59151l-4.80194,4.92417l-0.36266,-0.15347c-1.68331,-0.71255 -3.60844,-0.31852 -4.90471,1.00368c-1.749,1.80043 -1.749,4.7335 0.00195,6.53593c0.85144,0.87315 1.98463,1.35427 3.19038,1.35427c1.20564,0 2.33894,-0.48112 3.19107,-1.35517c1.28872,-1.32109 1.67233,-3.29525 0.97755,-5.02886l-0.14889,-0.37153l4.8016,-4.9235l4.8016,4.92372l-0.14889,0.37153c-0.69489,1.73338 -0.31116,3.70733 0.97755,5.02864c0.85213,0.87404 1.98544,1.35517 3.19107,1.35517c1.20575,0 2.33906,-0.48112 3.19118,-1.35517c1.7498,-1.8011 1.75026,-4.73328 0.00034,-6.53593zM8.16338,23.14217c0,0.68983 -0.26161,1.33801 -0.73677,1.8256c-0.47516,0.48714 -1.10744,0.75532 -1.78036,0.75532c-0.67268,0 -1.30497,-0.26818 -1.78013,-0.75532c-0.98156,-1.00657 -0.98156,-2.64418 0,-3.65097c0.47516,-0.48736 1.10733,-0.75554 1.78013,-0.75554c0.67291,0 1.3052,0.26818 1.78036,0.75554c0.47516,0.48714 0.73677,1.13576 0.73677,1.82538zM6.59485,22.16968c-0.52299,-0.53636 -1.37409,-0.53659 -1.89709,0c-0.52299,0.53636 -0.52299,1.40885 0,1.94499c0.52311,0.53659 1.37409,0.53636 1.89709,0c0.52299,-0.53614 0.52299,-1.40862 0,-1.94499z" fill="#c7332c" fill-opacity="1"></path></g></g></svg>