<?xml version="1.0" encoding="UTF-8"?>
<svg id="SVGDoc" width="39" height="39" xmlns="http://www.w3.org/2000/svg" version="1.1" xmlns:xlink="http://www.w3.org/1999/xlink" xmlns:avocode="https://avocode.com/" viewBox="0 0 39 39"><defs></defs><desc>Generated with Avocode.</desc><g><g><title>Forma 1</title><path d="M31.16168,26.60232c-2.05433,0.79274 -2.44377,1.91559 -2.44377,3.70978v7.44027c-0.00057,0.68872 -0.55893,1.24714 -1.24775,1.24714c-0.68951,0 -1.24786,-0.55842 -1.24786,-1.2478v-7.4396c0,-2.08554 0.45902,-4.65621 4.04102,-6.03944c2.06921,-0.79764 3.30425,-2.58159 3.30425,-4.77337c0,-2.19156 -1.23505,-3.97551 -3.30357,-4.77337c-3.58269,-1.38301 -4.04171,-3.9539 -4.04171,-6.03966v-7.43871c0,-0.68939 0.55836,-1.2478 1.24786,-1.2478c0.68951,0 1.24775,0.55842 1.24775,1.2478v7.44005c0,1.79419 0.38933,2.91704 2.44434,3.71022c3.02307,1.16606 4.90036,3.88686 4.90036,7.10215c0,3.21507 -1.87729,5.93631 -4.90093,7.10237zM31.52057,9.7612c0.26367,-0.6366 0.99163,-0.94242 1.62975,-0.67647c2.61887,1.08275 4.60487,3.02373 5.74322,5.61356c0.27786,0.63125 -0.0087,1.36675 -0.6395,1.64473c-0.16354,0.0715 -0.33463,0.10603 -0.50228,0.10603c-0.47985,0 -0.9375,-0.27843 -1.14235,-0.74619c-0.87536,-1.98887 -2.40108,-3.47946 -4.41216,-4.31163c-0.63686,-0.26373 -0.94025,-0.99299 -0.67669,-1.63003zM38.89297,24.30161c-1.13903,2.58983 -3.12447,4.53081 -5.74322,5.61378c-0.15541,0.06415 -0.31769,0.09467 -0.47596,0.09467c-0.49072,0 -0.95512,-0.29068 -1.15391,-0.77203c-0.26367,-0.63704 0.03983,-1.3663 0.67669,-1.63003c2.01164,-0.8315 3.53668,-2.32276 4.41216,-4.31163c0.27649,-0.63125 1.01189,-0.91725 1.64463,-0.63949c0.63148,0.27731 0.91736,1.01348 0.63961,1.64473zM22.15347,27.18212c0.46165,0.63081 0.71182,1.39994 0.71182,2.21183c0,1.21283 -0.57404,2.43569 -1.688,3.14067c0.30006,0.55441 0.46097,1.19056 0.46097,1.85322c-0.00069,1.86502 -1.29925,3.74898 -3.78147,3.74898h-7.36759c-2.41859,0 -4.72721,-0.73928 -6.67671,-2.13811c-0.55973,-0.40227 -0.68882,-1.18165 -0.28667,-1.74118c0.40157,-0.56064 1.18172,-0.68917 1.74145,-0.28689c1.52298,1.093 3.32851,1.67101 5.22194,1.67101h7.36759c1.2236,0 1.28517,-1.04177 1.28517,-1.25048c0,-0.33924 -0.11364,-0.65976 -0.31162,-0.87894c-0.21973,-0.24346 -0.54829,-0.36753 -0.97343,-0.36753c-0.68951,0 -1.24786,-0.55864 -1.24786,-1.24825c0,-0.68939 0.55836,-1.2478 1.24786,-1.2478h1.06945c1.37295,0 1.44253,-1.04244 1.44253,-1.25204c0,-0.32966 -0.1149,-0.63281 -0.32444,-0.8511c-0.25085,-0.2615 -0.62737,-0.3947 -1.11752,-0.3947c-0.68951,0 -1.24775,-0.55842 -1.24775,-1.2478c0,-0.68961 0.55824,-1.24825 1.24775,-1.24825h0.53272c1.32957,0 1.39664,-1.04154 1.39664,-1.25092c0,-0.32877 -0.11707,-0.64105 -0.32055,-0.85734c-0.24193,-0.25638 -0.60493,-0.38668 -1.07677,-0.38668c-0.68951,0 -1.24786,-0.55819 -1.24786,-1.24803c0,-0.68939 0.55836,-1.2478 1.24786,-1.2478h8.22407c1.09371,0 1.48178,-0.6415 1.48178,-1.19123c0,-0.55084 -0.38944,-1.14089 -1.48178,-1.14089h-14.22215c-0.68951,0 -1.24786,-0.55842 -1.24786,-1.24825c0,-0.68939 0.55836,-1.24758 1.24786,-1.24758h1.10516c0.46349,-0.45439 1.23035,-1.2066 1.47652,-1.44961c0.81379,-0.79809 0.92411,-1.77771 0.75577,-2.42945c-0.12314,-0.47645 -0.37788,-0.74864 -0.56248,-0.80054c-0.21904,-0.06215 -0.5658,0.11649 -0.93155,0.47533c-2.30576,2.26128 -8.06305,5.75678 -10.43118,7.15427c-1.15643,0.68159 -1.59336,1.0019 -2.3774,2.7032v12.59966c-0.00057,0.68961 -0.55904,1.2478 -1.24786,1.2478c-0.68951,0 -1.24786,-0.55819 -1.24786,-1.2478v-12.88098c0.00011,-0.00691 -0.00011,-0.01403 0,-0.02094v-2.88964c0,-0.68961 0.55836,-1.24803 1.24786,-1.24803c0.41107,0 0.77442,0.19935 1.0017,0.50585c0.38338,-0.31719 0.82226,-0.60408 1.35475,-0.91814c1.78596,-1.05402 7.78255,-4.65911 9.95121,-6.78585c1.40133,-1.37633 2.69852,-1.27854 3.34751,-1.09857c1.11065,0.30894 1.97445,1.27431 2.31113,2.58181c0.40066,1.55229 -0.02575,3.23823 -1.11282,4.50163h9.58168c2.61143,0 3.9782,1.82916 3.9782,3.63605c0,1.78751 -1.39458,3.68661 -3.9782,3.68661h-4.53518c0.13378,0.39314 0.20416,0.81234 0.20416,1.24379c0,1.02684 -0.40627,2.0597 -1.19854,2.7796z" fill="#c7332c" fill-opacity="1"></path></g></g></svg>