<?xml version="1.0" encoding="UTF-8"?>
<svg id="SVGDoc" width="13" height="13" xmlns="http://www.w3.org/2000/svg" version="1.1" xmlns:xlink="http://www.w3.org/1999/xlink" xmlns:avocode="https://avocode.com/" viewBox="0 0 13 13"><defs></defs><desc>Generated with Avocode.</desc><g><g><title>Shape 1</title><path d="M12.75342,11.42833c0.1656,0.17213 0.24582,0.39448 0.24147,0.61534c-0.00435,0.22201 -0.09327,0.44173 -0.26539,0.60701c-0.08102,0.07762 -0.17498,0.13788 -0.27718,0.17875c-0.10254,0.04109 -0.21217,0.06289 -0.32364,0.06289c-0.11787,0 -0.23289,-0.02397 -0.33966,-0.06917c-0.10586,-0.04452 -0.20267,-0.11106 -0.28519,-0.19633l-2.84752,-2.95253c-0.3978,0.25865 -0.82363,0.4592 -1.26858,0.59959c-0.50274,0.15843 -1.02997,0.2397 -1.56956,0.2397c-1.43909,0 -2.74406,-0.58384 -3.68912,-1.52586c-0.94505,-0.94225 -1.53042,-2.24325 -1.53042,-3.6778c0,-1.43443 0.58537,-2.73532 1.53042,-3.67757c0.94505,-0.94236 2.25014,-1.52609 3.68912,-1.52609c1.43909,0 2.74395,0.58373 3.68912,1.52609c0.94505,0.94225 1.53042,2.24314 1.53042,3.67757c0,0.61238 -0.10838,1.21368 -0.3154,1.77949c-0.18551,0.50634 -0.45055,0.98391 -0.78838,1.41594zM8.28095,2.85449c-0.63103,-0.6287 -1.50215,-1.0185 -2.46277,-1.0185c-0.96073,0 -1.83174,0.3898 -2.46277,1.0185c-0.63091,0.62893 -1.02173,1.49744 -1.02173,2.45544c0,0.95789 0.39082,1.8264 1.02173,2.45533c0.63103,0.6287 1.50204,1.01861 2.46277,1.01861c0.96062,0 1.83174,-0.38991 2.46277,-1.01861c0.63103,-0.62893 1.02184,-1.49744 1.02184,-2.45533c0,-0.958 -0.39082,-1.82651 -1.02184,-2.45544z" fill="#c7332c" fill-opacity="1"></path></g></g></svg>