<?xml version="1.0" encoding="UTF-8"?>
<svg id="SVGDoc" width="33" height="36" xmlns="http://www.w3.org/2000/svg" version="1.1" xmlns:xlink="http://www.w3.org/1999/xlink" xmlns:avocode="https://avocode.com/" viewBox="0 0 33 36"><defs></defs><desc>Generated with Avocode.</desc><g><g><title>Forma 1</title><path d="M14.78708,17.77324c-3.79417,3.86947 -6.82796,7.21263 -9.27037,10.67043c9.10303,-0.57664 17.34046,-5.58892 22.04575,-13.44379h-4.31236c-0.34058,0 -0.63755,-0.22831 -0.72453,-0.55819c-0.08709,-0.32877 0.05688,-0.67357 0.35248,-0.84442l7.18643,-4.10559c0.86998,-2.61611 1.34834,-5.29637 1.4249,-7.98153c-14.25935,0.38547 -25.86802,11.57885 -26.91234,25.66556c2.44198,-3.38646 5.43629,-6.67588 9.13749,-10.45113c0.29251,-0.29536 0.76653,-0.29848 1.06052,-0.01203c0.29549,0.28957 0.30155,0.76668 0.01202,1.0607zM1.43571,35.55545c-0.126,0.2791 -0.40054,0.44415 -0.6855,0.44415c-0.10197,0 -0.20702,-0.02094 -0.3075,-0.06593c-0.378,-0.16928 -0.546,-0.61343 -0.37651,-0.99143c0.86868,-1.9369 1.84954,-3.74099 2.96246,-5.4873c-0.01851,-0.06519 -0.02843,-0.13399 -0.02843,-0.20511c0,-16.12834 13.1218,-29.25011 29.24961,-29.25011c0.41405,0 0.75005,0.33567 0.75005,0.74997c0,3.19658 -0.54005,6.3916 -1.60652,9.49485c-0.05848,0.17263 -0.17853,0.31808 -0.33749,0.40829l-4.98138,2.84687h2.77794c0.2639,0 0.50846,0.13966 0.64499,0.36597c0.13493,0.22497 0.14099,0.50718 0.01648,0.73928c-5.0053,9.28344 -14.55317,15.12986 -25.04479,15.38586c-1.14878,1.77357 -2.15262,3.60078 -3.0334,5.56463z" fill="#c7332c" fill-opacity="1"></path></g></g></svg>