<?xml version="1.0" encoding="UTF-8"?>
<svg id="SVGDoc" width="31" height="32" xmlns="http://www.w3.org/2000/svg" version="1.1" xmlns:xlink="http://www.w3.org/1999/xlink" xmlns:avocode="https://avocode.com/" viewBox="0 0 31 32"><defs></defs><desc>Generated with Avocode.</desc><g><g><title>Forma 1</title><path d="M29.19411,23.01785c-4.01115,7.65321 -13.40298,10.57181 -20.97713,6.51878l-3.52329,2.36129c-0.12989,0.08709 -0.28782,0.12117 -0.44151,0.09467c-0.33314,-0.05724 -0.5571,-0.37621 -0.50056,-0.713l0.64842,-4.66022c-2.82246,-2.92884 -4.40163,-6.85512 -4.40083,-10.9429c0.00149,-8.66023 6.9508,-15.67974 15.52151,-15.67818c2.51816,0.00668 4.99683,0.63259 7.22214,1.82337c7.57416,4.05302 10.46253,13.54297 6.45126,21.19618zM25.55168,5.4007c-5.62145,-5.60175 -14.67247,-5.53805 -20.2161,0.14233c-5.54352,5.68038 -5.48035,14.82597 0.14111,20.42705c0.13802,0.13699 0.20382,0.33189 0.17738,0.52545l-0.53215,3.59128l2.75871,-1.81112c0.18929,-0.11048 0.42252,-0.11048 0.61169,0c2.14588,1.21929 4.56665,1.85767 7.02839,1.85433c3.8237,-0.002 7.4873,-1.5514 10.17208,-4.3025c5.54363,-5.67994 5.48046,-14.82552 -0.14111,-20.42683zM19.63737,21.84778v2.22498c0,0.34146 -0.27386,0.61811 -0.61169,0.61811h-6.39828c-0.33783,0 -0.61169,-0.27665 -0.61169,-0.61811v-2.22498c0,-0.34146 0.27386,-0.61811 0.61169,-0.61811h0.51384v-6.29203h-0.51384c-0.33783,0 -0.61169,-0.27709 -0.61169,-0.61833v-2.22498c0,-0.34124 0.27386,-0.61833 0.61169,-0.61833h5.27893c0.33783,0 0.61169,0.27709 0.61169,0.61833v9.13534h0.50766c0.33783,0 0.61169,0.27665 0.61169,0.61811zM13.2391,23.45443h5.1749l-0.00607,-0.98875h-0.50777c-0.33772,0 -0.61169,-0.27665 -0.61169,-0.61789v-9.13534h-4.04938v0.98898h0.51384c0.33783,0 0.61169,0.27665 0.61169,0.61789v7.52848c0,0.34124 -0.27386,0.61789 -0.61169,0.61789h-0.51384zM18.08372,8.02728c0,1.43045 -1.1475,2.58983 -2.56302,2.58983c-1.41552,0 -2.56302,-1.15938 -2.56302,-2.58983c0,-1.43023 1.1475,-2.58983 2.56302,-2.58983c1.41552,0 2.56302,1.1596 2.56302,2.58983zM16.86035,8.03351c0,-0.74752 -0.59978,-1.35361 -1.33965,-1.35361v-0.00624c-0.00206,0 -0.00401,0 -0.00607,0c-0.73986,0.00334 -1.3369,0.61232 -1.33358,1.35984c0,0.74752 0.59978,1.35361 1.33965,1.35361c0.73986,0 1.33965,-0.60608 1.33965,-1.35361z" fill="#c7332c" fill-opacity="1"></path></g></g></svg>