<?xml version="1.0" encoding="UTF-8"?>
<svg id="SVGDoc" width="35" height="38" xmlns="http://www.w3.org/2000/svg" version="1.1" xmlns:xlink="http://www.w3.org/1999/xlink" xmlns:avocode="https://avocode.com/" viewBox="0 0 35 38"><defs></defs><desc>Generated with Avocode.</desc><g><g><title>Shape 8</title><path d="M35.00084,36.70849c0,0.69986 -0.55023,1.29102 -1.24695,1.29102h-32.50706c-0.69672,0 -1.24695,-0.59116 -1.24695,-1.29102v-26.12369c0,-0.28867 0.09247,-0.56844 0.26791,-0.79497l7.02816,-9.29326c0.23632,-0.3105 0.59155,-0.49694 0.97961,-0.49694h18.45726c0.3883,0 0.74341,0.18644 0.97984,0.49738l7.0277,9.2926c0.17487,0.22542 0.26917,0.51275 0.26047,0.80054zM26.12686,2.58165h-7.37572v6.87183h12.56893zM3.6882,9.45348h12.56905v-6.87183h-7.37572zM32.50694,35.41747v-23.38195h-30.01316v23.38195zM21.63116,19.19134c0.48901,-0.50986 1.28632,-0.50986 1.76662,0.01069c0.48145,0.50384 0.48065,1.31552 -0.00252,1.81892l-6.80958,7.09992l-0.00172,0.00156c-0.23712,0.23722 -0.54691,0.37532 -0.88108,0.37532c-0.33348,0 -0.65334,-0.13765 -0.88589,-0.38022l-3.21156,-3.34827c-0.48386,-0.50451 -0.48386,-1.3173 0,-1.82181c0.48855,-0.50919 1.28323,-0.50919 1.77177,0l2.32567,2.42478z" fill="#ffffff" fill-opacity="1"></path></g></g></svg>