<?xml version="1.0" encoding="UTF-8"?>
<svg id="SVGDoc" width="35" height="38" xmlns="http://www.w3.org/2000/svg" version="1.1" xmlns:xlink="http://www.w3.org/1999/xlink" xmlns:avocode="https://avocode.com/" viewBox="0 0 35 38"><defs></defs><desc>Generated with Avocode.</desc><g><g><title>Shape 3</title><path d="M28.62617,-0.0003c3.51425,0 6.37367,2.83973 6.37367,6.33004c0,3.11239 -2.29534,5.77613 -5.38799,6.25491l-0.17532,0.02708v24.58319c0,0.44446 -0.36266,0.80484 -0.81036,0.80484h-27.8159c-0.44769,0 -0.81036,-0.36038 -0.81036,-0.80484v-30.86518c0,-3.48993 2.85908,-6.33004 6.37333,-6.33004zM6.37325,1.60938c-2.62081,0 -4.75262,2.11764 -4.75262,4.72036c0,2.6031 2.13169,4.72055 4.75262,4.72055c2.62081,0 4.75273,-2.11745 4.75273,-4.72055c0,-2.60272 -2.13192,-4.72036 -4.75273,-4.72036zM27.81593,36.39008v-23.73011h-21.44257c-1.64623,0 -3.21316,-0.62713 -4.40231,-1.75688l-0.35042,-0.33311v25.8201zM28.62617,11.05029c2.62093,0 4.75296,-2.11745 4.75296,-4.72055c0,-2.6031 -2.13215,-4.72055 -4.75296,-4.72055h-17.98359l0.33508,0.34798c1.13743,1.18123 1.76903,2.73772 1.76903,4.37257c0,1.63523 -0.63148,3.19133 -1.76903,4.37237l-0.33508,0.34817zM3.85703,6.32974c0,-1.37782 1.12873,-2.49937 2.51621,-2.49937c0.44758,0 0.81036,0.36038 0.81036,0.80503c0,0.44446 -0.36278,0.80484 -0.81036,0.80484c-0.49404,0 -0.8955,0.39908 -0.8955,0.8895c0,0.4908 0.40146,0.88969 0.8955,0.88969c0.44758,0 0.81036,0.36019 0.81036,0.80484c0,0.44465 -0.36278,0.80484 -0.81036,0.80484c-1.38737,0 -2.51621,-1.12155 -2.51621,-2.49937z" fill="#ea534c" fill-opacity="1"></path></g></g></svg>