<?xml version="1.0" encoding="UTF-8"?>
<svg id="SVGDoc" width="18" height="18" xmlns="http://www.w3.org/2000/svg" version="1.1" xmlns:xlink="http://www.w3.org/1999/xlink" xmlns:avocode="https://avocode.com/" viewBox="0 0 18 18"><defs></defs><desc>Generated with Avocode.</desc><g><g><title>Forma 1</title><path d="M17.9999,2.99991c0,-1.57657 -1.42319,-3.00034 -2.99995,-3.00034h-12.00005c-1.57677,0 -2.99995,1.42377 -2.99995,3.00034v11.99959c0,1.57635 1.42319,3.00012 3.00018,3.00012h5.99979v0v-6.79988v0h-2.20001v0v-3.00012v0h2.20001v0v-1.16873c0,-2.01582 1.51371,-3.83139 3.37498,-3.83139h2.425v0v3.00012v0h-2.425c-0.26539,0 -0.57495,0.32209 -0.57495,0.80477v1.19524v0h2.99995v0v3.00012v0h-2.99995v0v6.79988v0h3.2c1.57677,0 2.99995,-1.42377 2.99995,-3.00012z" fill="#c7332c" fill-opacity="1"></path></g></g></svg>