<?xml version="1.0" encoding="UTF-8"?>
<svg id="SVGDoc" width="35" height="35" xmlns="http://www.w3.org/2000/svg" version="1.1" xmlns:xlink="http://www.w3.org/1999/xlink" xmlns:avocode="https://avocode.com/" viewBox="0 0 35 35"><defs></defs><desc>Generated with Avocode.</desc><g><g><title>Forma 1</title><path d="M26.38662,12.98786c0.75508,0 1.36723,0.6121 1.36723,1.36742c0,0.7551 -0.61214,1.36697 -1.36723,1.36697c-0.75508,0 -1.36723,-0.61187 -1.36723,-1.36697c0,-0.75532 0.61214,-1.36742 1.36723,-1.36742zM34.9999,8.2029v7.79265c0,0.75554 -0.61203,1.36719 -1.36723,1.36719c-0.75508,0 -1.36711,-0.61165 -1.36711,-1.36719v-7.79265c0,-1.50797 -1.22669,-2.73439 -2.73445,-2.73439h-1.77727v1.36719c0,0.75487 -0.61214,1.36719 -1.36723,1.36719c-0.75508,0 -1.36723,-0.61232 -1.36723,-1.36719v-1.36719h-6.22066v1.36719c0,0.75487 -0.61203,1.36719 -1.36723,1.36719c-0.75508,0 -1.36711,-0.61232 -1.36711,-1.36719v-1.36719h-6.15234v1.36719c0,0.75487 -0.61214,1.36719 -1.36723,1.36719c-0.75508,0 -1.36723,-0.61232 -1.36723,-1.36719v-1.36719h-1.70895c-1.50776,0 -2.73434,1.22642 -2.73434,2.73439v21.32805c0,1.50774 1.22658,2.73461 2.73434,2.73461h10.45898c0.75508,0 1.36723,0.61165 1.36723,1.36697c0,0.7551 -0.61214,1.36697 -1.36723,1.36697h-10.45898c-3.0154,0 -5.46879,-2.45329 -5.46879,-5.46855v-21.32805c0,-3.01549 2.45338,-5.46878 5.46879,-5.46878h1.70895v-1.36719c0,-0.75532 0.61214,-1.36742 1.36723,-1.36742c0.75508,0 1.36723,0.6121 1.36723,1.36742v1.36719h6.15234v-1.36719c0,-0.75532 0.61203,-1.36742 1.36711,-1.36742c0.7552,0 1.36723,0.6121 1.36723,1.36742v1.36719h6.22066v-1.36719c0,-0.75532 0.61214,-1.36742 1.36723,-1.36742c0.75508,0 1.36723,0.6121 1.36723,1.36742v1.36719h1.77727c3.01552,0 5.46879,2.45329 5.46879,5.46878zM34.9999,26.72818c0,4.56088 -3.71052,8.27132 -8.27145,8.27132c-4.56093,0 -8.27156,-3.71045 -8.27156,-8.27132c0,-4.56088 3.71063,-8.27154 8.27156,-8.27154c4.56093,0 8.27145,3.71067 8.27145,8.27154zM32.26556,26.72818c0,-3.05335 -2.48405,-5.53716 -5.53711,-5.53716c-3.05317,0 -5.53711,2.4838 -5.53711,5.53716c0,3.05335 2.48394,5.53738 5.53711,5.53738c3.05305,0 5.53711,-2.48403 5.53711,-5.53738zM30.07803,26.72818c0,0.7551 -0.61203,1.36719 -1.36723,1.36719h-1.98235c-0.75508,0 -1.36723,-0.6121 -1.36723,-1.36719v-2.80277c0,-0.7551 0.61214,-1.36719 1.36723,-1.36719c0.75508,0 1.36711,0.6121 1.36711,1.36719v1.43535h0.61523c0.7552,0 1.36723,0.61232 1.36723,1.36742zM20.43935,12.98786c0.75508,0 1.36723,0.6121 1.36723,1.36742c0,0.7551 -0.61214,1.36697 -1.36723,1.36697c-0.75508,0 -1.36723,-0.61187 -1.36723,-1.36697c0,-0.75532 0.61214,-1.36742 1.36723,-1.36742zM14.49209,18.93509c0.75508,0 1.36723,0.6121 1.36723,1.36742c0,0.7551 -0.61214,1.36697 -1.36723,1.36697c-0.75508,0 -1.36723,-0.61187 -1.36723,-1.36697c0,-0.75532 0.61214,-1.36742 1.36723,-1.36742zM8.54482,12.98786c0.75508,0 1.36723,0.6121 1.36723,1.36742c0,0.7551 -0.61214,1.36697 -1.36723,1.36697c-0.75508,0 -1.36723,-0.61187 -1.36723,-1.36697c0,-0.75532 0.61214,-1.36742 1.36723,-1.36742zM8.54482,18.93509c0.75508,0 1.36723,0.6121 1.36723,1.36742c0,0.7551 -0.61214,1.36697 -1.36723,1.36697c-0.75508,0 -1.36723,-0.61187 -1.36723,-1.36697c0,-0.75532 0.61214,-1.36742 1.36723,-1.36742zM8.54482,24.88231c0.75508,0 1.36723,0.61232 1.36723,1.36742c0,0.75487 -0.61214,1.36719 -1.36723,1.36719c-0.75508,0 -1.36723,-0.61232 -1.36723,-1.36719c0,-0.7551 0.61214,-1.36742 1.36723,-1.36742zM14.49209,24.88231c0.75508,0 1.36723,0.61232 1.36723,1.36742c0,0.75487 -0.61214,1.36719 -1.36723,1.36719c-0.75508,0 -1.36723,-0.61232 -1.36723,-1.36719c0,-0.7551 0.61214,-1.36742 1.36723,-1.36742zM14.49209,12.98786c0.75508,0 1.36723,0.6121 1.36723,1.36742c0,0.7551 -0.61214,1.36697 -1.36723,1.36697c-0.75508,0 -1.36723,-0.61187 -1.36723,-1.36697c0,-0.75532 0.61214,-1.36742 1.36723,-1.36742z" fill="#c7332c" fill-opacity="1"></path></g></g></svg>