<?xml version="1.0" encoding="UTF-8"?>
<svg id="SVGDoc" width="37" height="36" xmlns="http://www.w3.org/2000/svg" version="1.1" xmlns:xlink="http://www.w3.org/1999/xlink" xmlns:avocode="https://avocode.com/" viewBox="0 0 37 36"><defs></defs><desc>Generated with Avocode.</desc><g><g><title>Shape 2</title><path d="M35.39046,6.26024h-1.6087v7.03973c0,0.00172 0.0008,0.00248 0.0008,0.004c0,0.00133 -0.0008,0.00248 -0.0008,0.00381v16.43087c0.0008,0 1.6095,0 1.6103,0c0.4287,0 0.83244,0.16265 1.13571,0.458c0.30487,0.29593 0.47218,0.68853 0.47218,1.10725v3.1307c0,0.863 -0.72155,1.56487 -1.6095,1.56487h-33.78193c-0.4303,0 -0.83416,-0.16246 -1.13811,-0.45838c-0.30407,-0.29669 -0.47058,-0.69044 -0.46978,-1.1082v-3.12898c-0.0008,-0.41701 0.16571,-0.81018 0.46978,-1.10573c0.30396,-0.29688 0.70782,-0.45953 1.13811,-0.45953h1.6087v-23.47842h-1.6087c-0.4303,0 -0.83416,-0.16246 -1.13811,-0.45838c-0.30407,-0.2965 -0.47058,-0.69024 -0.46978,-1.1082v-3.12898c-0.0008,-0.41701 0.16571,-0.8098 0.46978,-1.10573c0.30396,-0.2965 0.70782,-0.45934 1.13811,-0.45934c0.0008,0 33.78273,0 33.78353,0c0.4287,0 0.83244,0.16284 1.13571,0.45781c0.30487,0.29593 0.47218,0.68872 0.47218,1.10725v3.1307c0,0.863 -0.72155,1.56487 -1.6095,1.56487zM32.17307,27.64237h-12.86842v2.09628h12.86842zM17.69595,27.64237h-12.87014v2.09628h12.87014zM4.82581,26.07712h12.87014v-2.84907h-12.87014zM19.30465,26.07712h12.86842v-2.84907h-12.86842zM4.82581,21.66298h12.87014v-2.84907h-12.87014zM19.30465,21.66298h12.86842v-2.84907h-12.86842zM4.82581,17.24885l7.96268,-0.00019v0.00019h4.90746v-2.84888h-12.87014zM19.30465,17.24885h2.616l10.25242,-0.00019v-2.84869h-12.86842zM4.82581,12.83472h12.87014v-2.84888h-12.87014zM19.30465,12.83472h12.86842v-2.84888h-12.86842zM19.30465,6.26024v2.16035h12.86842v-2.16035zM17.69595,8.42059v-2.16035h-12.87014v2.16035zM35.39127,31.30391h-33.78273l0.0008,3.1307h33.78273zM35.39207,4.69536l-0.0008,-3.1307h-33.78273l0.0008,3.1307z" fill="#ea534c" fill-opacity="1"></path></g></g></svg>