<?xml version="1.0" encoding="UTF-8"?>
<svg id="SVGDoc" width="39" height="38" xmlns="http://www.w3.org/2000/svg" version="1.1" xmlns:xlink="http://www.w3.org/1999/xlink" xmlns:avocode="https://avocode.com/" viewBox="0 0 39 38"><defs></defs><desc>Generated with Avocode.</desc><g><g><title>Forma 1</title><path d="M18.38969,36.86362c0,0.62747 -0.51556,1.13576 -1.1515,1.13576h-16.08673c-0.63595,0 -1.1515,-0.5083 -1.1515,-1.13576c0,-3.70644 2.2665,-6.8999 5.50438,-8.30473c-0.94883,-0.93396 -1.5366,-2.22408 -1.5366,-3.64719c0,-2.84286 2.34489,-5.15515 5.2272,-5.15515c2.88231,0 5.22709,2.31229 5.22709,5.15515c0,1.4231 -0.58788,2.71323 -1.5366,3.64719c3.23776,1.40484 5.50426,4.5983 5.50426,8.30473zM6.27085,24.9117c0,1.59016 1.31172,2.88363 2.92397,2.88363c1.61224,0 2.92408,-1.29347 2.92408,-2.88363c0,-1.58994 -1.31184,-2.88385 -2.92408,-2.88385c-1.61224,0 -2.92397,1.29369 -2.92397,2.88385zM15.99032,35.72808c-0.54955,-3.20927 -3.38757,-5.66145 -6.7955,-5.66145c-3.40794,0 -6.24607,2.45217 -6.79562,5.66145zM38.99992,36.86362c0,0.62747 -0.51567,1.13599 -1.15162,1.13599h-16.08673c-0.63595,0 -1.1515,-0.50852 -1.1515,-1.13599c0,-3.70644 2.26673,-6.8999 5.50438,-8.30473c-0.94883,-0.93396 -1.5366,-2.22408 -1.5366,-3.64719c0,-2.84286 2.34489,-5.15515 5.22709,-5.15515c2.88231,0 5.2272,2.31229 5.2272,5.15515c0,1.4231 -0.58788,2.71323 -1.5366,3.64719c3.23776,1.40484 5.50438,4.5983 5.50438,8.30473zM26.88109,24.9117c0,1.59016 1.31172,2.88363 2.92397,2.88363c1.61224,0 2.92397,-1.29347 2.92397,-2.88363c0,-1.58994 -1.31172,-2.88385 -2.92397,-2.88385c-1.61224,0 -2.92397,1.29369 -2.92397,2.88385zM36.60067,35.72808c-0.54955,-3.20927 -3.38757,-5.66145 -6.79562,-5.66145c-3.40794,0 -6.24607,2.45217 -6.79562,5.66145zM32.85811,8.76844v4.5954c0,1.0999 -0.66319,2.04968 -1.61602,2.4818v1.71601c0,0.4437 -0.26196,0.84709 -0.67062,1.03219c-0.15381,0.0695 -0.3178,0.1038 -0.48065,0.1038c-0.2702,0 -0.5373,-0.09355 -0.75016,-0.27397l-2.75345,-2.33033h-5.12295c-1.52607,0 -2.76752,-1.22464 -2.76752,-2.72949v-0.77559h-3.96824l-4.03358,5.49261c-0.22076,0.30048 -0.57049,0.46932 -0.93281,0.46932c-0.11833,0 -0.23792,-0.01782 -0.35488,-0.05524c-0.47493,-0.15169 -0.79651,-0.58804 -0.79651,-1.08052v-4.86514c-1.30405,-0.21985 -2.29946,-1.34291 -2.29946,-2.69051v-7.12954c0,-1.50507 1.24146,-2.72949 2.76752,-2.72949h13.64182c1.52596,0 2.76752,1.22442 2.76752,2.72949v3.30995h4.60247c1.52596,0 2.76752,1.22464 2.76752,2.72926zM14.14061,10.3165h8.57998c0.256,0 0.4644,-0.20537 0.4644,-0.45774v-7.12954c0,-0.25281 -0.2084,-0.4584 -0.4644,-0.4584h-13.64182c-0.25612,0 -0.4644,0.20559 -0.4644,0.4584v7.12954c0,0.25259 0.2084,0.45774 0.4644,0.45774h0.68344c0.63595,0 1.15162,0.50874 1.15162,1.13599v2.45796l2.29408,-3.12419c0.21664,-0.29513 0.56339,-0.46976 0.93269,-0.46976zM30.55499,13.36384v-4.5954c0,-0.25237 -0.2084,-0.45774 -0.4644,-0.45774h-4.60247v1.54806c0,1.50507 -1.24157,2.72949 -2.76764,2.72949h-1.72073v0.77559c0,0.25259 0.2084,0.45796 0.4644,0.45796h5.54935c0.27512,0 0.54119,0.09734 0.75005,0.27397l1.17554,0.99477v-0.1332c0,-0.62702 0.51556,-1.13554 1.1515,-1.13554c0.25612,0 0.4644,-0.20559 0.4644,-0.45796z" fill="#c7332c" fill-opacity="1"></path></g></g></svg>