<?xml version="1.0" encoding="UTF-8"?>
<svg id="SVGDoc" width="29" height="34" xmlns="http://www.w3.org/2000/svg" version="1.1" xmlns:xlink="http://www.w3.org/1999/xlink" xmlns:avocode="https://avocode.com/" viewBox="0 0 29 34"><defs></defs><desc>Generated with Avocode.</desc><g><g><title>Shape 1</title><path d="M28.99995,6.56038v7.30796c0,7.52513 -3.47202,12.50655 -6.38489,15.3601c-3.13591,3.07207 -6.78875,4.77115 -8.11489,4.77115c-1.32626,0 -4.97921,-1.69908 -8.11512,-4.77115c-2.91286,-2.85355 -6.385,-7.83497 -6.385,-15.3601v-7.30796c0,-0.32186 0.21538,-0.60452 0.5262,-0.68961c4.81155,-1.31797 9.26342,-3.20571 13.61023,-5.77171c0.22442,-0.13253 0.50285,-0.13253 0.72727,0c4.22493,2.49405 8.9312,4.48982 13.60989,5.77171c0.31082,0.08509 0.52631,0.36775 0.52631,0.68961zM27.56932,7.1032c-4.49135,-1.27966 -8.99014,-3.19324 -13.06904,-5.55965c-4.18339,2.43079 -8.4684,4.25349 -13.06961,5.55988v6.76491c0,7.02842 3.23868,11.67661 5.95551,14.33816c3.08384,3.02106 6.38123,4.36264 7.11399,4.36264c0.73277,0 4.02981,-1.34158 7.11365,-4.36264c2.71694,-2.66155 5.95551,-7.30974 5.95551,-14.33816zM7.75639,7.95074c-1.14635,0.45194 -2.31926,0.87204 -3.49342,1.25181v2.23923c0,0.39492 -0.32032,0.715 -0.71526,0.715c-0.39505,0 -0.71537,-0.32008 -0.71537,-0.715v-2.76201c0,-0.31229 0.20302,-0.58871 0.50125,-0.68248c1.30886,-0.41029 2.62047,-0.87382 3.89832,-1.37722c0.3677,-0.14478 0.783,0.03564 0.92777,0.40316c0.14488,0.36775 -0.03571,0.78294 -0.40329,0.9275zM8.86189,6.73078c-0.15816,-0.36196 0.00538,-0.78294 0.36747,-0.94109l0.01156,-0.00512c0.36152,-0.15837 0.78518,0.00535 0.94391,0.36708c0.15862,0.36173 -0.00435,0.78316 -0.36633,0.94176l-0.01316,0.00557c-0.09338,0.04054 -0.19089,0.06014 -0.28679,0.06014c-0.27603,0 -0.53936,-0.15993 -0.65666,-0.42833zM23.23018,24.05124c-0.63881,0.97806 -1.38737,1.91269 -2.22485,2.77916c-0.68687,0.71033 -1.43143,1.37276 -2.21283,1.96815c-0.12955,0.0989 -0.28198,0.14679 -0.43327,0.14679c-0.21538,0 -0.42847,-0.09734 -0.56934,-0.28177c-0.23941,-0.31407 -0.17899,-0.76289 0.13515,-1.00234c0.72441,-0.55218 1.41472,-1.16606 2.05181,-1.82538c0.77465,-0.8012 1.46622,-1.665 2.05559,-2.56689c0.21641,-0.33077 0.65964,-0.42343 0.99014,-0.20782c0.33073,0.21651 0.42377,0.65932 0.2076,0.99009zM17.24252,29.03845c0.1997,0.34102 0.08514,0.77893 -0.25578,0.97873l-0.04738,0.02784c-0.11261,0.06526 -0.23609,0.09645 -0.35763,0.09645c-0.24696,0 -0.48706,-0.12808 -0.6197,-0.35706c-0.19787,-0.34169 -0.08114,-0.7796 0.2607,-0.97739l0.04108,-0.02406c0.34069,-0.19935 0.779,-0.08531 0.9787,0.25549zM12.20322,18.11849l7.1727,-7.17142c0.43934,-0.43925 1.02345,-0.68115 1.64474,-0.68115c0.62141,0 1.20552,0.24168 1.64486,0.68115c0.90683,0.90634 0.90683,2.38156 0.00011,3.28879l-8.81756,8.81593c-0.43934,0.43947 -1.02345,0.68115 -1.64474,0.68115c-0.6213,0 -1.20541,-0.24168 -1.64474,-0.6807l-4.22379,-4.22342c-0.90683,-0.90656 -0.90683,-2.38201 0,-3.28879c0.43934,-0.43947 1.02356,-0.68115 1.64486,-0.68115c0.6213,0 1.20541,0.24168 1.64463,0.68115zM12.70894,19.63581c-0.13412,0.13387 -0.31597,0.20938 -0.50571,0.20938c-0.18974,0 -0.37159,-0.07551 -0.50583,-0.20938l-3.08464,-3.08454c-0.16903,-0.16884 -0.39391,-0.26172 -0.6332,-0.26172c-0.2393,0 -0.46417,0.09311 -0.63332,0.26217c-0.34904,0.34881 -0.34904,0.91681 0.00011,1.26607l4.22367,4.22275c0.16914,0.16906 0.39413,0.26195 0.63332,0.26195c0.23918,0 0.46417,-0.09288 0.6332,-0.26195l8.81733,-8.81593c0.34916,-0.34904 0.34916,-0.91703 0.00023,-1.26629c-0.16926,-0.16884 -0.39402,-0.26195 -0.63332,-0.26195c-0.2393,0 -0.46417,0.09311 -0.6332,0.26195z" fill="#c7332c" fill-opacity="1"></path></g></g></svg>