<?xml version="1.0" encoding="UTF-8"?>
<svg id="SVGDoc" width="23" height="16" xmlns="http://www.w3.org/2000/svg" version="1.1" xmlns:xlink="http://www.w3.org/1999/xlink" xmlns:avocode="https://avocode.com/" viewBox="0 0 23 16"><defs></defs><desc>Generated with Avocode.</desc><g><g><title>Shape 1</title><path d="M22.99978,6.03155v3.93586c0,2.49583 -0.39803,3.9372 -1.33141,4.81993c-0.91003,0.86135 -2.31674,1.21216 -4.85538,1.21216h-10.62641c-5.22984,0 -6.18668,-2.03119 -6.18668,-6.03209v-3.93586c0,-2.06527 0,-3.5572 0.80635,-4.56979c0.82706,-1.03865 2.38586,-1.4623 5.38033,-1.4623h10.6263c2.9274,0 4.46022,0.39782 5.29049,1.37343c0.83405,0.98029 0.89642,2.48091 0.89642,4.65866zM15.16424,7.89189c-0.00034,-0.27331 -0.1545,-0.52389 -0.40009,-0.64996l-4.82529,-2.47667c-0.23003,-0.11828 -0.5056,-0.10892 -0.72716,0.02406c-0.22156,0.1332 -0.35671,0.37064 -0.35671,0.62657v4.96983c0,0.25638 0.1355,0.49449 0.35751,0.62724c0.11776,0.07083 0.25097,0.10603 0.38429,0.10603c0.11799,0 0.23575,-0.0274 0.34367,-0.08331l4.82552,-2.49271c0.24513,-0.12652 0.3986,-0.37733 0.39825,-0.65108z" fill="#c7332c" fill-opacity="1"></path></g></g></svg>