<?xml version="1.0" encoding="UTF-8"?>
<svg id="SVGDoc" width="18" height="16" xmlns="http://www.w3.org/2000/svg" version="1.1" xmlns:xlink="http://www.w3.org/1999/xlink" xmlns:avocode="https://avocode.com/" viewBox="0 0 18 16"><defs></defs><desc>Generated with Avocode.</desc><g><g><title>Forma 1</title><path d="M17.99998,4.80829c0,3.23504 -3.14999,5.94559 -7.73998,10.05473l-1.25999,1.13675l-1.26011,-1.13675c-4.67995,-4.02194 -7.73998,-6.73226 -7.73998,-10.05473c0,-2.71021 2.16007,-4.80884 4.95003,-4.80884c1.52996,0 3.06004,0.6997 4.05006,1.83645c0.98991,-1.13675 2.51999,-1.83645 4.04995,-1.83645c2.78996,0 4.95003,2.09863 4.95003,4.80884zM16.19994,4.80829c0,-1.74833 -1.34995,-3.05994 -3.14999,-3.05994c-1.35006,0 -2.7,0.87422 -3.14999,2.0984h-1.70998c-0.54005,-1.22418 -1.88999,-2.0984 -3.24005,-2.0984c-1.80004,0 -3.14999,1.31162 -3.14999,3.05994c0,2.5358 2.78996,4.98371 7.10999,8.74323l0.09007,0.08766h0.08995c4.32003,-3.84719 7.10999,-6.29509 7.10999,-8.83089z" fill="#393c49" fill-opacity="1"></path></g></g></svg>