<?xml version="1.0" encoding="UTF-8"?>
<svg id="SVGDoc" width="17" height="16" xmlns="http://www.w3.org/2000/svg" version="1.1" xmlns:xlink="http://www.w3.org/1999/xlink" xmlns:avocode="https://avocode.com/" viewBox="0 0 17 16"><defs></defs><desc>Generated with Avocode.</desc><g><g><title>Shape 1 copy</title><path d="M15.73587,5.96913h-0.00023c0.23998,0.30921 0.40318,0.67687 0.48363,1.06918c0.07977,0.3882 0.07805,0.80254 -0.01099,1.20877l-1.30302,5.92287c-0.11547,0.53019 -0.37411,0.98186 -0.71857,1.30294c-0.35751,0.33284 -0.80635,0.52654 -1.28666,0.52654h-8.72246c-0.47997,0 -0.92846,-0.19427 -1.28574,-0.52711c-0.34481,-0.32108 -0.60379,-0.7732 -0.71938,-1.30237l-1.30016,-5.92287c-0.08904,-0.40623 -0.09064,-0.82057 -0.01087,-1.20877c0.08034,-0.39231 0.24364,-0.75996 0.48363,-1.06918h-0.00023c0.19535,-0.25317 0.42847,-0.45041 0.68676,-0.5851c0.2631,-0.13834 0.54943,-0.21048 0.84595,-0.21048h0.7275c0.12749,-1.38307 0.67326,-2.62335 1.48533,-3.54117c0.8947,-1.01153 2.11063,-1.63316 3.44994,-1.63316c1.33942,0 2.55524,0.62162 3.45005,1.63316c0.81207,0.91782 1.35784,2.1581 1.48521,3.54117h0.72762c0.29652,0 0.58273,0.07214 0.84583,0.21048c0.25841,0.13469 0.49152,0.33193 0.68687,0.5851zM8.54028,2.05631c-0.7782,0 -1.48945,0.37918 -2.01954,0.99795c-0.47264,0.55154 -0.8028,1.28959 -0.91393,2.11929h5.86704c-0.11101,-0.83085 -0.44083,-1.56844 -0.91335,-2.11986c-0.53009,-0.6182 -1.24157,-0.99738 -2.02023,-0.99738zM14.26965,7.79176c0.01831,-0.08332 0.03811,-0.20466 0.03811,-0.33101c0,-0.08161 -0.00801,-0.15843 -0.03113,-0.20637c-0.00469,-0.01004 -0.0119,-0.01746 -0.02266,-0.01975c-0.01041,-0.00263 -0.02724,-0.00377 -0.05081,-0.00377h-11.32565c-0.01774,0 -0.02953,0.00046 -0.03582,0.00171c-0.00778,0.00205 -0.01556,0.01358 -0.02254,0.02933c-0.02769,0.06152 -0.03731,0.15238 -0.03731,0.24564c0,0.1122 0.01362,0.2139 0.02907,0.28422l1.30016,5.92596c0.01923,0.08823 0.05344,0.16265 0.09441,0.21242c0.00183,0.00194 -0.00149,0.00377 -0.00652,0.00559c-0.01339,0.00468 -0.03983,0.00696 -0.0214,0.00696h8.72543c0.01842,0 -0.0079,-0.00228 -0.02129,-0.00696c-0.00515,-0.00183 -0.00835,-0.00365 -0.00664,-0.00559c0.04097,-0.04977 0.0753,-0.12419 0.09453,-0.21242z" fill="#393c49" fill-opacity="1"></path></g></g></svg>