<?xml version="1.0" encoding="UTF-8"?>
<svg id="SVGDoc" width="23" height="23" xmlns="http://www.w3.org/2000/svg" version="1.1" xmlns:xlink="http://www.w3.org/1999/xlink" xmlns:avocode="https://avocode.com/" viewBox="0 0 23 23"><defs></defs><desc>Generated with Avocode.</desc><g><g><title>Forma 1</title><path d="M22.0046,22.00448c-1.31596,1.31607 -3.44582,1.31607 -4.76166,0c-0.28828,-0.28821 -5.46398,-5.46288 -5.74413,-5.7431c-0.18082,0.18103 -5.95985,5.95735 -6.14033,6.13758c-0.39368,0.39402 -0.91106,0.59092 -1.42834,0.59092c-0.51739,0 -1.03466,-0.1969 -1.42845,-0.59092l-1.90475,-1.9047c-0.7877,-0.78759 -0.7877,-2.06918 0,-2.85688l6.13976,-6.13712l-2.87373,-2.87309c-0.18471,-0.18503 -0.32558,-0.39836 -0.42126,-0.61637l-3.36502,-6.90268c-0.00481,-0.00993 -0.00938,-0.01975 -0.01373,-0.02979c-0.1252,-0.29232 -0.06077,-0.62653 0.16411,-0.85139c0.22488,-0.22498 0.55916,-0.28924 0.85144,-0.16414c0.01019,0.00434 0.02026,0.00902 0.03021,0.01381l6.89999,3.36767c0.22442,0.09851 0.43728,0.24244 0.61592,0.42107l2.87384,2.8732l6.13884,-6.14157c0.78781,-0.78793 2.06955,-0.78793 2.85713,-0.00034l1.90475,1.90482c0.78758,0.7877 0.78758,2.0693 0,2.85688c-0.06512,0.06529 -6.07372,6.0764 -6.13861,6.14134c0.25967,0.25968 5.48424,5.4832 5.74402,5.74321c1.31618,1.31595 1.31596,3.44575 0,4.76158zM12.45096,7.69085l2.85725,2.85677l0.95432,-0.95469l-0.47596,-0.47575c-0.26287,-0.2631 -0.26287,-0.68954 0,-0.95264c0.26299,-0.26276 0.68939,-0.26276 0.95238,0l0.47562,0.47586l0.95215,-0.95264l-1.42776,-1.4277c-0.26299,-0.2631 -0.26299,-0.68931 0,-0.95241c0.26299,-0.26276 0.68939,-0.26276 0.95226,0l1.42765,1.42747l0.89985,-0.90013l-0.47653,-0.47632c-0.26299,-0.2631 -0.26299,-0.68954 0,-0.95252c0.26299,-0.26276 0.68939,-0.26276 0.95238,0l0.47619,0.47643l0.47596,-0.4762c0.26264,-0.26276 0.26264,-0.68999 0.00011,-0.95252l-1.90475,-1.9047c-0.26241,-0.26241 -0.68962,-0.26241 -0.95226,0zM3.6754,2.82791l-1.65596,-0.80813l0.80772,1.65701c0.34115,-0.21596 0.63251,-0.50748 0.84824,-0.84888zM4.35667,6.81412l2.45533,-2.45533l-1.91986,-0.93688c-0.35316,0.61215 -0.85945,1.11849 -1.4716,1.47199zM10.54655,15.30932l-2.85725,-2.85711l-6.13998,6.13724c-0.26241,0.26264 -0.26241,0.68977 0.00011,0.95229l1.90464,1.90482c0.26264,0.26276 0.68985,0.26241 0.95238,0l0.4763,-0.47586l-0.4763,-0.47643c-0.26299,-0.2631 -0.26299,-0.68942 0,-0.95229c0.26299,-0.26299 0.68939,-0.26299 0.95226,0l0.47653,0.47643l0.90328,-0.90276l-1.42754,-1.42759c-0.26299,-0.2631 -0.26299,-0.68919 0,-0.95229c0.26299,-0.26299 0.68939,-0.26299 0.95226,0l1.42776,1.42781l0.95261,-0.95218l-0.47573,-0.47563c-0.26287,-0.26299 -0.26287,-0.68942 0,-0.95218c0.26299,-0.2631 0.68939,-0.2631 0.95238,0l0.47585,0.47552zM14.91132,17.76887l2.85713,-2.85722c-0.12039,-0.12019 -9.16008,-9.15803 -9.80335,-9.80122l-2.85702,2.857zM19.62377,16.76681l-0.90294,-0.90287l-2.85702,2.85722l0.90282,0.90253zM21.64411,19.62369c0,-0.53967 -0.21011,-1.04703 -0.59166,-1.4285l-0.4763,-0.47632l-2.85702,2.85734l0.47619,0.47586c0.78964,0.78975 2.0676,0.78964 2.85702,0.00034c0.38166,-0.38169 0.59177,-0.88906 0.59177,-1.42873z" fill="#ffffff" fill-opacity="1"></path></g></g></svg>