<?xml version="1.0" encoding="UTF-8"?>
<svg id="SVGDoc" width="31" height="32" xmlns="http://www.w3.org/2000/svg" version="1.1" xmlns:xlink="http://www.w3.org/1999/xlink" xmlns:avocode="https://avocode.com/" viewBox="0 0 31 32"><defs></defs><desc>Generated with Avocode.</desc><g><g><title>Shape 1</title><path d="M30.49109,17.30294c0.44689,0.61566 0.60894,1.4015 0.44689,2.14813c-0.16193,0.74663 -0.6348,1.38835 -1.29559,1.76189l-0.83576,0.47132c-0.39516,0.21628 -0.60894,0.66823 -0.52471,1.12017l0.17487,0.94955c0.13607,0.75332 -0.05184,1.52601 -0.5183,2.12853c-0.46635,0.60274 -1.16604,0.96938 -1.92398,1.01526l-0.95238,0.05234c-0.44701,0.02628 -0.83576,0.34035 -0.95238,0.77938l-0.25269,0.92973c-0.31094,1.15938 -1.36036,1.96503 -2.54597,1.96503c-0.34332,0 -0.68024,-0.07217 -1.0041,-0.20292l-0.8876,-0.36686c-0.41462,-0.17018 -0.90694,-0.05234 -1.19854,0.28823l-0.62187,0.73973c-0.50537,0.58314 -1.23093,0.91703 -1.99539,0.91703c-0.74501,0 -1.46416,-0.32075 -1.96301,-0.88407l-0.64133,-0.72035c-0.29148,-0.33411 -0.79033,-0.44549 -1.19854,-0.26863l-0.88108,0.37978c-0.33039,0.14411 -0.68665,0.21651 -1.04301,0.21651c-1.17256,0 -2.21558,-0.79274 -2.53956,-1.92561l-0.2655,-0.93017c-0.12314,-0.4388 -0.51189,-0.74641 -0.96531,-0.76646l-0.9589,-0.03898c-0.75142,-0.03297 -1.45763,-0.39314 -1.93703,-0.98898c-0.47287,-0.59628 -0.67371,-1.36875 -0.55069,-2.12185l0.16205,-0.95623c0.07118,-0.45217 -0.14259,-0.89743 -0.54417,-1.11349l-0.84229,-0.45863c-0.6673,-0.36641 -1.1467,-0.99544 -1.32156,-1.74207c-0.17498,-0.74641 -0.01945,-1.53247 0.41462,-2.15481l0.55069,-0.79207c0.26562,-0.37354 0.25909,-0.87805 -0.00652,-1.24469l-0.56362,-0.77938c-0.44701,-0.61544 -0.60894,-1.40172 -0.44701,-2.14813c0.16193,-0.74641 0.63492,-1.38858 1.2957,-1.76167l0.83576,-0.47155c0.39516,-0.22274 0.60894,-0.67469 0.52471,-1.12641l-0.17498,-0.94977c-0.13596,-0.75309 0.05184,-1.52623 0.5183,-2.12853c0.46646,-0.6023 1.16615,-0.96915 1.9241,-1.01504l0.95238,-0.05903c0.44701,-0.02628 0.83565,-0.34057 0.95226,-0.77938l0.25269,-0.92995c0.31094,-1.15915 1.36047,-1.96503 2.54608,-1.96503c0.34332,0 0.68024,0.07217 1.0041,0.20336l0.8876,0.36641c0.41451,0.17062 0.90694,0.05257 1.19843,-0.28801l0.62199,-0.73995c0.50526,-0.58292 1.23093,-0.91703 1.99528,-0.91703c0.74512,0 1.46416,0.32765 1.96301,0.89052l0.64144,0.72079c0.29148,0.33367 0.79033,0.44504 1.19843,0.2684l0.88108,-0.37978c0.33039,-0.14411 0.68676,-0.21606 1.04301,-0.21606c1.17268,0 2.21569,0.7923 2.53956,1.92516l0.26562,0.93017c0.12314,0.4388 0.51178,0.74663 0.96531,0.76623l0.95879,0.03274c0.75153,0.03274 1.45763,0.39314 1.93703,0.98875c0.47298,0.59606 0.67383,1.36875 0.55069,2.12207l-0.15541,0.95623c-0.0713,0.45217 0.14248,0.89743 0.54417,1.11349l0.84217,0.4584c0.6673,0.3604 1.1467,0.99521 1.32156,1.74207c0.17498,0.74663 0.01945,1.53291 -0.41462,2.15481l-0.55069,0.7923c-0.2655,0.37354 -0.25909,0.87783 0.00652,1.24469zM29.24071,18.23935l-0.56362,-0.77915c-0.67383,-0.93017 -0.68024,-2.1811 -0.02598,-3.1175l0.55069,-0.7923c0.17498,-0.24903 0.23323,-0.55686 0.16193,-0.858c-0.07118,-0.30137 -0.25909,-0.5504 -0.53123,-0.69429l-0.84217,-0.45863c-1.0041,-0.54371 -1.54839,-1.66344 -1.36047,-2.79631l0.15553,-0.95623c0.05184,-0.30137 -0.02586,-0.60252 -0.2203,-0.84509c-0.1878,-0.24212 -0.46646,-0.37978 -0.77087,-0.39292l-0.9589,-0.0392c-1.13365,-0.05257 -2.10537,-0.82526 -2.42294,-1.92561l-0.2655,-0.93017c-0.12966,-0.4515 -0.54428,-0.76623 -1.01074,-0.76623c-0.14248,0 -0.27855,0.02651 -0.41462,0.08531l-0.88097,0.37955c-0.33051,0.14434 -0.68035,0.21628 -1.04313,0.21628c-0.75142,0 -1.47057,-0.32721 -1.96941,-0.89052l-0.64133,-0.72035c-0.20084,-0.2292 -0.47939,-0.35372 -0.78392,-0.35372c-0.31094,0 -0.59601,0.13097 -0.79685,0.36686l-0.6284,0.72681c-0.50537,0.58314 -1.23093,0.91681 -1.99539,0.91681c-0.34332,0 -0.68024,-0.07195 -1.0041,-0.20292l-0.8876,-0.36686c-0.12955,-0.05234 -0.26562,-0.07863 -0.40157,-0.07863c-0.47298,0 -0.89401,0.32765 -1.01715,0.78606l-0.25269,0.93663c-0.30441,1.10681 -1.26331,1.89264 -2.39697,1.95791l-0.95238,0.05925c-0.30441,0.01938 -0.57655,0.16349 -0.76447,0.40606c-0.1878,0.24234 -0.26562,0.54371 -0.20725,0.85132l0.16846,0.93663c0.20725,1.12641 -0.32398,2.2595 -1.31516,2.81613l-0.83576,0.47155c-0.26562,0.1508 -0.45341,0.39938 -0.51819,0.70075c-0.0713,0.30137 -0.00652,0.60898 0.17487,0.858l0.56362,0.77938c0.67371,0.92995 0.68024,2.1811 0.02586,3.11773l-0.55058,0.79207c-0.17498,0.24903 -0.23323,0.55663 -0.16205,0.858c0.06477,0.30137 0.25269,0.5504 0.52483,0.69451l0.84217,0.4584c1.0041,0.54349 1.54839,1.66322 1.36047,2.79631l-0.16193,0.95646c-0.05184,0.30115 0.02586,0.60252 0.22018,0.84464c0.18791,0.24257 0.46646,0.38 0.77099,0.39292l0.95879,0.0392c1.13377,0.05279 2.10548,0.82548 2.42294,1.92561l0.26562,0.9304c0.12955,0.45172 0.54417,0.76601 1.01063,0.76601c0.14259,0 0.27855,-0.02628 0.41462,-0.08509l0.88108,-0.37978c0.33039,-0.14411 0.68024,-0.21628 1.04301,-0.21628c0.75153,0 1.47057,0.32765 1.96941,0.89097l0.64144,0.72035c0.20073,0.2292 0.47939,0.35349 0.78381,0.35349c0.31105,0 0.59612,-0.1312 0.79685,-0.36686l0.62851,-0.72681c0.50526,-0.58292 1.23081,-0.91703 1.99528,-0.91703c0.34344,0 0.68024,0.07217 1.0041,0.20314l0.8876,0.36686c0.12955,0.05212 0.26562,0.07863 0.40169,0.07863c0.47287,0 0.89401,-0.32119 1.01704,-0.78606l0.25269,-0.92995c0.30453,-1.10703 1.26331,-1.89287 2.39708,-1.95835l0.95226,-0.05257c0.30453,-0.01938 0.57667,-0.16349 0.76447,-0.40584c0.18791,-0.24257 0.26562,-0.55017 0.20737,-0.85154l-0.17487,-0.94977c-0.20737,-1.12596 0.32387,-2.25906 1.31504,-2.81591l0.83576,-0.47177c0.26562,-0.1508 0.45341,-0.39938 0.51819,-0.70053c0.06489,-0.30783 0,-0.6092 -0.15541,-0.85823zM21.46651,11.97182c0.84229,0.858 1.30875,1.9911 1.30875,3.20259c-0.00652,1.20504 -0.47298,2.34459 -1.31516,3.19613l-5.00141,5.05603c-0.25257,0.25549 -0.59601,0.3996 -0.95879,0.3996c-0.36278,0 -0.7061,-0.13765 -0.95879,-0.3996l-5.00782,-5.06249c-0.84869,-0.858 -1.31516,-1.9911 -1.31516,-3.19636c0,-1.20481 0.46005,-2.34459 1.30863,-3.19591c0.84869,-0.85154 1.96953,-1.32287 3.16154,-1.32287c1.03649,0 2.01473,0.35349 2.81158,1.00167c0.79044,-0.6415 1.77509,-0.99521 2.80518,-0.99521c1.19854,0 2.31926,0.47177 3.16143,1.31641zM21.18155,15.1811c0,-0.7796 -0.298,-1.51287 -0.84229,-2.06304c-0.54417,-0.55017 -1.26972,-0.85154 -2.04071,-0.85154c-0.77087,0 -1.49643,0.30783 -2.04071,0.858l-0.20073,0.20314c-0.29812,0.30137 -0.82283,0.30137 -1.12083,0l-0.20725,-0.2096c-0.55069,-0.55017 -1.27625,-0.85778 -2.04723,-0.85778c-0.76447,0 -1.49002,0.30093 -2.03419,0.8511c-0.54417,0.5504 -0.84217,1.28367 -0.84217,2.06304c0,0.77938 0.30441,1.51287 0.84869,2.06304l4.84577,4.899l4.83936,-4.89232c0.55069,-0.55017 0.84869,-1.28389 0.84229,-2.06304z" fill="#ffffff" fill-opacity="1"></path></g></g></svg>