<?xml version="1.0" encoding="UTF-8"?>
<svg id="SVGDoc" width="14" height="13" xmlns="http://www.w3.org/2000/svg" version="1.1" xmlns:xlink="http://www.w3.org/1999/xlink" xmlns:avocode="https://avocode.com/" viewBox="0 0 14 13"><defs></defs><desc>Generated with Avocode.</desc><g><g><title>Shape 1 copy 2</title><path d="M9.41401,7.86388c0.85922,0.39448 1.61488,0.97364 2.22118,1.68612c0.72899,0.85687 1.24226,1.90984 1.45878,3.07056l0.07072,0.37907h-1.67873l-0.05527,-0.25374c-0.24445,-1.12043 -0.86987,-2.09407 -1.73378,-2.7828c-0.85098,-0.67881 -1.9352,-1.0831 -3.11657,-1.0831c-1.18149,0 -2.2657,0.40429 -3.11657,1.0831c-0.86391,0.68919 -1.48956,1.66238 -1.73401,2.7828l-0.05516,0.25374h-1.68068l0.07256,-0.38021c0.21675,-1.13469 0.7299,-2.17339 1.45878,-3.03049c0.60814,-0.71522 1.36745,-1.30454 2.23091,-1.71659c-0.43293,-0.35053 -0.79617,-0.77914 -1.06934,-1.2663c-0.3582,-0.6392 -0.56053,-1.37679 -0.56053,-2.1662c0,-1.22121 0.50102,-2.33148 1.30817,-3.13665c0.80704,-0.80448 1.92066,-1.30374 3.14587,-1.30374v0.00137c1.22601,0 2.33952,0.49892 3.14587,1.30237c0.80715,0.80448 1.30817,1.91543 1.30817,3.13665c0,0.78941 -0.20245,1.527 -0.56076,2.1662c-0.271,0.4834 -0.63091,0.90949 -1.05961,1.25785zM4.61939,2.48467c-0.50354,0.50211 -0.81608,1.19451 -0.81608,1.95515c0,0.7611 0.31254,1.45258 0.81608,1.95504c0.50343,0.50177 1.19762,0.81327 1.96095,0.81327c0.76321,0 1.45752,-0.3115 1.96095,-0.81327c0.50343,-0.50246 0.81585,-1.19393 0.81585,-1.95504c0,-0.76065 -0.31242,-1.45304 -0.81585,-1.95515c-0.50343,-0.50177 -1.19774,-0.81338 -1.96095,-0.81338c-0.76332,0 -1.45752,0.31161 -1.96095,0.81338z" fill="#c7332c" fill-opacity="1"></path></g></g></svg>